# MagicaVoxel @ Ephtracy

# group
o 

# material
mtllib Phone.mtl
usemtl palette

# normals
vn -1 0 0
vn 1 0 0
vn 0 0 1
vn 0 0 -1
vn 0 -1 0
vn 0 1 0

# texcoords
vt 0.845703 0.5
vt 0.896484 0.5
vt 0.923828 0.5
vt 0.978516 0.5
vt 0.982422 0.5
vt 0.986328 0.5

# verts
v 0.1 2 -0.3
v 0.1 2 -0.6
v 0.1 3.1 -0.3
v 0.1 3.1 -0.6
v 0.8 2 -0.3
v 0.8 2 -0.6
v 0.8 3.1 -0.3
v 0.8 3.1 -0.6
v 0.1 2 -0.3
v 0.1 3.1 -0.3
v 0.2 2.7 -0.3
v 0.2 3 -0.3
v 0.3 2.1 -0.3
v 0.3 2.2 -0.3
v 0.3 2.3 -0.3
v 0.3 2.4 -0.3
v 0.3 2.5 -0.3
v 0.3 2.6 -0.3
v 0.4 2.1 -0.3
v 0.4 2.2 -0.3
v 0.4 2.3 -0.3
v 0.4 2.4 -0.3
v 0.4 2.5 -0.3
v 0.4 2.6 -0.3
v 0.5 2.1 -0.3
v 0.5 2.2 -0.3
v 0.5 2.3 -0.3
v 0.5 2.4 -0.3
v 0.5 2.5 -0.3
v 0.5 2.6 -0.3
v 0.6 2.1 -0.3
v 0.6 2.2 -0.3
v 0.6 2.3 -0.3
v 0.6 2.4 -0.3
v 0.6 2.5 -0.3
v 0.6 2.6 -0.3
v 0.7 2.7 -0.3
v 0.7 3 -0.3
v 0.8 2 -0.3
v 0.8 3.1 -0.3
v 0.1 2 -0.6
v 0.1 3.1 -0.6
v 0.8 2 -0.6
v 0.8 3.1 -0.6
v 0.1 2 -0.3
v 0.8 2 -0.3
v 0.1 2 -0.6
v 0.8 2 -0.6
v 0.1 3.1 -0.3
v 0.8 3.1 -0.3
v 0.1 3.1 -0.6
v 0.8 3.1 -0.6

# faces
f 3/6/1 2/6/1 1/6/1
f 4/6/1 2/6/1 3/6/1
f 5/6/2 6/6/2 7/6/2
f 7/6/2 6/6/2 8/6/2
f 11/6/3 10/6/3 9/6/3
f 12/6/3 10/6/3 11/6/3
f 13/6/3 11/6/3 9/6/3
f 14/6/3 11/6/3 13/6/3
f 15/6/3 11/6/3 14/6/3
f 16/6/3 11/6/3 15/6/3
f 17/6/3 11/6/3 16/6/3
f 18/6/3 11/6/3 17/6/3
f 19/6/3 13/6/3 9/6/3
f 19/4/3 14/4/3 13/4/3
f 20/5/3 15/5/3 14/5/3
f 20/4/3 14/4/3 19/4/3
f 21/4/3 16/4/3 15/4/3
f 21/5/3 15/5/3 20/5/3
f 22/5/3 17/5/3 16/5/3
f 22/4/3 16/4/3 21/4/3
f 23/2/3 18/2/3 17/2/3
f 23/5/3 17/5/3 22/5/3
f 24/6/3 11/6/3 18/6/3
f 24/2/3 18/2/3 23/2/3
f 25/6/3 19/6/3 9/6/3
f 25/5/3 20/5/3 19/5/3
f 26/4/3 21/4/3 20/4/3
f 26/5/3 20/5/3 25/5/3
f 27/5/3 22/5/3 21/5/3
f 27/4/3 21/4/3 26/4/3
f 28/4/3 23/4/3 22/4/3
f 28/5/3 22/5/3 27/5/3
f 29/6/3 24/6/3 23/6/3
f 29/4/3 23/4/3 28/4/3
f 30/6/3 11/6/3 24/6/3
f 30/6/3 24/6/3 29/6/3
f 31/4/3 26/4/3 25/4/3
f 31/6/3 25/6/3 9/6/3
f 32/5/3 27/5/3 26/5/3
f 32/4/3 26/4/3 31/4/3
f 33/4/3 28/4/3 27/4/3
f 33/5/3 27/5/3 32/5/3
f 34/5/3 29/5/3 28/5/3
f 34/4/3 28/4/3 33/4/3
f 35/1/3 30/1/3 29/1/3
f 35/5/3 29/5/3 34/5/3
f 36/6/3 11/6/3 30/6/3
f 36/1/3 30/1/3 35/1/3
f 37/3/3 12/3/3 11/3/3
f 37/6/3 11/6/3 36/6/3
f 37/6/3 36/6/3 35/6/3
f 37/6/3 34/6/3 33/6/3
f 37/6/3 32/6/3 31/6/3
f 37/6/3 33/6/3 32/6/3
f 37/6/3 35/6/3 34/6/3
f 38/6/3 10/6/3 12/6/3
f 38/3/3 12/3/3 37/3/3
f 39/6/3 37/6/3 31/6/3
f 39/6/3 31/6/3 9/6/3
f 39/6/3 38/6/3 37/6/3
f 40/6/3 10/6/3 38/6/3
f 40/6/3 38/6/3 39/6/3
f 41/6/4 42/6/4 43/6/4
f 43/6/4 42/6/4 44/6/4
f 47/6/5 46/6/5 45/6/5
f 48/6/5 46/6/5 47/6/5
f 49/6/6 50/6/6 51/6/6
f 51/6/6 50/6/6 52/6/6
