# MagicaVoxel @ Ephtracy

# group
o 

# material
mtllib Laptop.mtl
usemtl palette

# normals
vn -1 0 0
vn 1 0 0
vn 0 0 1
vn 0 0 -1
vn 0 -1 0
vn 0 1 0

# texcoords
vt 0.849609 0.5
vt 0.923828 0.5
vt 0.958984 0.5
vt 0.978516 0.5
vt 0.982422 0.5
vt 0.986328 0.5

# verts
v 0 2 -0.1
v 0 2 -1.9
v 0 2.1 -0.1
v 0 2.1 -1.9
v 1.2 2.1 -0.1
v 1.2 2.1 -1.6
v 1.2 2.1 -1.7
v 1.2 2.1 -1.9
v 1.2 2.3 -0.2
v 1.2 2.3 -1.8
v 1.2 2.4 -0.3
v 1.2 2.4 -0.8
v 1.2 2.5 -0.3
v 1.2 2.5 -0.8
v 1.2 2.5 -1
v 1.2 2.5 -1.2
v 1.2 2.5 -1.4
v 1.2 2.5 -1.5
v 1.2 2.5 -1.6
v 1.2 2.5 -1.7
v 1.2 2.6 -1
v 1.2 2.6 -1.2
v 1.2 2.6 -1.5
v 1.2 2.6 -1.6
v 1.2 2.6 -1.7
v 1.2 2.7 -0.6
v 1.2 2.7 -1.2
v 1.2 2.7 -1.5
v 1.2 2.7 -1.6
v 1.2 2.7 -1.7
v 1.2 2.8 -0.6
v 1.2 2.8 -1.2
v 1.2 2.8 -1.4
v 1.2 2.8 -1.5
v 1.2 2.8 -1.6
v 1.2 2.8 -1.7
v 1.2 2.9 -1.3
v 1.2 2.9 -1.4
v 1.2 3 -0.5
v 1.2 3 -1.2
v 1.2 3 -1.3
v 1.2 3 -1.4
v 1.2 3 -1.5
v 1.2 3 -1.6
v 1.2 3 -1.7
v 1.2 3.1 -0.5
v 1.2 3.1 -1.2
v 1.2 3.1 -1.6
v 1.2 3.1 -1.7
v 1.2 3.2 -0.9
v 1.2 3.2 -1.2
v 1.2 3.2 -1.6
v 1.2 3.2 -1.7
v 1.2 3.3 -0.9
v 1.2 3.3 -1.2
v 1.2 3.3 -1.3
v 1.2 3.3 -1.4
v 1.2 3.3 -1.5
v 1.2 3.3 -1.6
v 1.2 3.3 -1.7
v 1.2 3.4 -0.2
v 1.2 3.4 -1.3
v 1.2 3.4 -1.4
v 1.2 3.4 -1.8
v 1.2 3.5 -0.1
v 1.2 3.5 -1.9
v 1.4 2 -0.1
v 1.4 2 -1.9
v 1.4 3.5 -0.1
v 1.4 3.5 -1.9
v 0 2 -0.1
v 0 2.1 -0.1
v 1.2 2.1 -0.1
v 1.2 3.5 -0.1
v 1.4 2 -0.1
v 1.4 3.5 -0.1
v 0 2 -1.9
v 0 2.1 -1.9
v 1.2 2.1 -1.9
v 1.2 3.5 -1.9
v 1.4 2 -1.9
v 1.4 3.5 -1.9
v 0 2 -0.1
v 1.4 2 -0.1
v 0.3 2 -0.2
v 1.1 2 -0.2
v 0.1 2 -0.7
v 0.2 2 -0.7
v 0.3 2 -0.7
v 0.2 2 -0.9
v 0.3 2 -0.9
v 0.2 2 -1.1
v 0.3 2 -1.1
v 0.1 2 -1.3
v 0.2 2 -1.3
v 0.3 2 -1.3
v 1.1 2 -1.6
v 1.2 2 -1.6
v 1.1 2 -1.7
v 1.2 2 -1.7
v 0.3 2 -1.8
v 1.1 2 -1.8
v 0 2 -1.9
v 1.4 2 -1.9
v 0 2.1 -0.1
v 1.2 2.1 -0.1
v 0.3 2.1 -0.2
v 1.1 2.1 -0.2
v 0.1 2.1 -0.7
v 0.2 2.1 -0.7
v 0.3 2.1 -0.7
v 0.2 2.1 -0.9
v 0.3 2.1 -0.9
v 0.2 2.1 -1.1
v 0.3 2.1 -1.1
v 0.1 2.1 -1.3
v 0.2 2.1 -1.3
v 0.3 2.1 -1.3
v 1.1 2.1 -1.6
v 1.2 2.1 -1.6
v 1.1 2.1 -1.7
v 1.2 2.1 -1.7
v 0.3 2.1 -1.8
v 1.1 2.1 -1.8
v 0 2.1 -1.9
v 1.2 2.1 -1.9
v 1.2 3.5 -0.1
v 1.4 3.5 -0.1
v 1.2 3.5 -1.9
v 1.4 3.5 -1.9

# faces
f 3/4/1 2/4/1 1/4/1
f 4/4/1 2/4/1 3/4/1
f 9/4/1 6/4/1 5/4/1
f 9/4/1 8/4/1 7/4/1
f 9/4/1 7/4/1 6/4/1
f 10/4/1 8/4/1 9/4/1
f 11/2/1 10/2/1 9/2/1
f 12/2/1 10/2/1 11/2/1
f 13/2/1 11/2/1 9/2/1
f 13/3/1 12/3/1 11/3/1
f 14/2/1 10/2/1 12/2/1
f 14/3/1 12/3/1 13/3/1
f 15/2/1 10/2/1 14/2/1
f 16/2/1 10/2/1 15/2/1
f 17/2/1 10/2/1 16/2/1
f 18/2/1 10/2/1 17/2/1
f 19/2/1 10/2/1 18/2/1
f 20/2/1 10/2/1 19/2/1
f 21/2/1 14/2/1 13/2/1
f 21/2/1 15/2/1 14/2/1
f 21/3/1 16/3/1 15/3/1
f 22/2/1 17/2/1 16/2/1
f 22/3/1 16/3/1 21/3/1
f 23/3/1 19/3/1 18/3/1
f 23/6/1 18/6/1 17/6/1
f 24/6/1 20/6/1 19/6/1
f 24/3/1 19/3/1 23/3/1
f 25/2/1 10/2/1 20/2/1
f 25/6/1 20/6/1 24/6/1
f 26/2/1 21/2/1 13/2/1
f 26/2/1 22/2/1 21/2/1
f 27/2/1 17/2/1 22/2/1
f 27/2/1 22/2/1 26/2/1
f 28/6/1 24/6/1 23/6/1
f 28/6/1 23/6/1 17/6/1
f 29/3/1 25/3/1 24/3/1
f 29/6/1 24/6/1 28/6/1
f 30/2/1 10/2/1 25/2/1
f 30/3/1 25/3/1 29/3/1
f 31/3/1 27/3/1 26/3/1
f 31/2/1 26/2/1 13/2/1
f 32/2/1 17/2/1 27/2/1
f 32/3/1 27/3/1 31/3/1
f 33/6/1 28/6/1 17/6/1
f 33/2/1 17/2/1 32/2/1
f 34/3/1 29/3/1 28/3/1
f 34/6/1 28/6/1 33/6/1
f 35/6/1 30/6/1 29/6/1
f 35/3/1 29/3/1 34/3/1
f 36/2/1 10/2/1 30/2/1
f 36/6/1 30/6/1 35/6/1
f 37/2/1 35/2/1 34/2/1
f 37/2/1 34/2/1 33/2/1
f 37/2/1 36/2/1 35/2/1
f 37/2/1 32/2/1 31/2/1
f 37/2/1 33/2/1 32/2/1
f 38/2/1 36/2/1 37/2/1
f 39/2/1 31/2/1 13/2/1
f 39/2/1 37/2/1 31/2/1
f 40/2/1 37/2/1 39/2/1
f 41/3/1 38/3/1 37/3/1
f 41/2/1 37/2/1 40/2/1
f 42/2/1 36/2/1 38/2/1
f 42/3/1 38/3/1 41/3/1
f 43/2/1 36/2/1 42/2/1
f 44/2/1 36/2/1 43/2/1
f 45/2/1 10/2/1 36/2/1
f 45/2/1 36/2/1 44/2/1
f 46/3/1 40/3/1 39/3/1
f 46/2/1 39/2/1 13/2/1
f 47/2/1 41/2/1 40/2/1
f 47/3/1 40/3/1 46/3/1
f 47/2/1 42/2/1 41/2/1
f 48/2/1 44/2/1 43/2/1
f 48/3/1 45/3/1 44/3/1
f 49/2/1 10/2/1 45/2/1
f 49/3/1 45/3/1 48/3/1
f 50/2/1 47/2/1 46/2/1
f 51/2/1 42/2/1 47/2/1
f 51/2/1 47/2/1 50/2/1
f 52/2/1 48/2/1 43/2/1
f 52/2/1 49/2/1 48/2/1
f 53/2/1 10/2/1 49/2/1
f 53/2/1 49/2/1 52/2/1
f 54/2/1 50/2/1 46/2/1
f 54/3/1 51/3/1 50/3/1
f 55/2/1 42/2/1 51/2/1
f 55/3/1 51/3/1 54/3/1
f 56/2/1 42/2/1 55/2/1
f 57/3/1 43/3/1 42/3/1
f 57/2/1 42/2/1 56/2/1
f 58/2/1 52/2/1 43/2/1
f 58/3/1 43/3/1 57/3/1
f 59/3/1 53/3/1 52/3/1
f 59/2/1 52/2/1 58/2/1
f 60/2/1 10/2/1 53/2/1
f 60/3/1 53/3/1 59/3/1
f 61/4/1 9/4/1 5/4/1
f 61/2/1 13/2/1 9/2/1
f 61/2/1 46/2/1 13/2/1
f 61/2/1 55/2/1 54/2/1
f 61/2/1 54/2/1 46/2/1
f 61/2/1 56/2/1 55/2/1
f 62/3/1 57/3/1 56/3/1
f 62/2/1 56/2/1 61/2/1
f 63/2/1 60/2/1 59/2/1
f 63/3/1 57/3/1 62/3/1
f 63/2/1 58/2/1 57/2/1
f 63/2/1 59/2/1 58/2/1
f 64/2/1 10/2/1 60/2/1
f 64/2/1 60/2/1 63/2/1
f 64/4/1 8/4/1 10/4/1
f 65/4/1 63/4/1 62/4/1
f 65/4/1 61/4/1 5/4/1
f 65/4/1 64/4/1 63/4/1
f 65/4/1 62/4/1 61/4/1
f 66/4/1 8/4/1 64/4/1
f 66/4/1 64/4/1 65/4/1
f 67/4/2 68/4/2 69/4/2
f 69/4/2 68/4/2 70/4/2
f 73/4/3 72/4/3 71/4/3
f 75/4/3 73/4/3 71/4/3
f 75/4/3 74/4/3 73/4/3
f 76/4/3 74/4/3 75/4/3
f 77/4/4 78/4/4 79/4/4
f 77/4/4 79/4/4 81/4/4
f 79/4/4 80/4/4 81/4/4
f 81/4/4 80/4/4 82/4/4
f 85/4/5 84/4/5 83/4/5
f 86/4/5 84/4/5 85/4/5
f 87/4/5 85/4/5 83/4/5
f 88/4/5 85/4/5 87/4/5
f 89/6/5 86/6/5 85/6/5
f 89/4/5 85/4/5 88/4/5
f 90/5/5 88/5/5 87/5/5
f 90/6/5 89/6/5 88/6/5
f 91/6/5 86/6/5 89/6/5
f 91/6/5 89/6/5 90/6/5
f 92/5/5 90/5/5 87/5/5
f 92/5/5 91/5/5 90/5/5
f 93/6/5 86/6/5 91/6/5
f 93/5/5 91/5/5 92/5/5
f 94/5/5 92/5/5 87/5/5
f 94/4/5 87/4/5 83/4/5
f 95/6/5 93/6/5 92/6/5
f 95/5/5 92/5/5 94/5/5
f 96/6/5 86/6/5 93/6/5
f 96/6/5 93/6/5 95/6/5
f 97/4/5 84/4/5 86/4/5
f 97/6/5 86/6/5 96/6/5
f 98/4/5 84/4/5 97/4/5
f 99/6/5 97/6/5 96/6/5
f 99/1/5 98/1/5 97/1/5
f 100/4/5 84/4/5 98/4/5
f 100/1/5 98/1/5 99/1/5
f 101/4/5 96/4/5 95/4/5
f 101/4/5 95/4/5 94/4/5
f 101/6/5 99/6/5 96/6/5
f 102/4/5 100/4/5 99/4/5
f 102/6/5 99/6/5 101/6/5
f 103/4/5 101/4/5 94/4/5
f 103/4/5 94/4/5 83/4/5
f 103/4/5 102/4/5 101/4/5
f 104/4/5 84/4/5 100/4/5
f 104/4/5 102/4/5 103/4/5
f 104/4/5 100/4/5 102/4/5
f 105/4/6 106/4/6 107/4/6
f 107/4/6 106/4/6 108/4/6
f 105/4/6 107/4/6 109/4/6
f 109/4/6 107/4/6 110/4/6
f 107/6/6 108/6/6 111/6/6
f 110/4/6 107/4/6 111/4/6
f 109/5/6 110/5/6 112/5/6
f 110/6/6 111/6/6 112/6/6
f 111/6/6 108/6/6 113/6/6
f 112/6/6 111/6/6 113/6/6
f 109/5/6 112/5/6 114/5/6
f 112/5/6 113/5/6 114/5/6
f 113/6/6 108/6/6 115/6/6
f 114/5/6 113/5/6 115/5/6
f 109/5/6 114/5/6 116/5/6
f 105/4/6 109/4/6 116/4/6
f 114/6/6 115/6/6 117/6/6
f 116/5/6 114/5/6 117/5/6
f 115/6/6 108/6/6 118/6/6
f 117/6/6 115/6/6 118/6/6
f 108/4/6 106/4/6 119/4/6
f 118/6/6 108/6/6 119/6/6
f 119/4/6 106/4/6 120/4/6
f 118/6/6 119/6/6 121/6/6
f 119/1/6 120/1/6 121/1/6
f 121/1/6 120/1/6 122/1/6
f 117/4/6 118/4/6 123/4/6
f 116/4/6 117/4/6 123/4/6
f 118/6/6 121/6/6 123/6/6
f 121/4/6 122/4/6 124/4/6
f 123/6/6 121/6/6 124/6/6
f 116/4/6 123/4/6 125/4/6
f 105/4/6 116/4/6 125/4/6
f 123/4/6 124/4/6 125/4/6
f 124/4/6 122/4/6 126/4/6
f 125/4/6 124/4/6 126/4/6
f 127/4/6 128/4/6 129/4/6
f 129/4/6 128/4/6 130/4/6
