# This file was created with Minddesk Qubicle 3.0
# Get Qubicle at www.getqubicle.com

mtllib GlassDoor.mtl

vn 0.0 0.0 1.0
vn 0.0 0.0 -1.0
vn -1.0 0.0 0.0
vn 1.0 0.0 0.0
vn 0.0 1.0 0.0
vn 0.0 -1.0 0.0

v -44.00000 77.00000 -100.00000
v -44.00000 21.00000 -100.00000
v -100.00000 21.00000 -100.00000
v -100.00000 77.00000 -100.00000
v -44.00000 20.00000 -100.00000
v -99.00000 20.00000 -100.00000
v -99.00000 21.00000 -100.00000
v -44.00000 78.00000 -100.00000
v -99.00000 77.00000 -100.00000
v -99.00000 78.00000 -100.00000
v -44.00000 19.00000 -100.00000
v -98.00000 19.00000 -100.00000
v -98.00000 20.00000 -100.00000
v -44.00000 79.00000 -100.00000
v -98.00000 78.00000 -100.00000
v -98.00000 79.00000 -100.00000
v -44.00000 18.00000 -100.00000
v -97.00000 18.00000 -100.00000
v -97.00000 19.00000 -100.00000
v -44.00000 80.00000 -100.00000
v -97.00000 79.00000 -100.00000
v -97.00000 80.00000 -100.00000
v -44.00000 17.00000 -100.00000
v -96.00000 17.00000 -100.00000
v -96.00000 18.00000 -100.00000
v -44.00000 81.00000 -100.00000
v -96.00000 80.00000 -100.00000
v -96.00000 81.00000 -100.00000
v -44.00000 16.00000 -100.00000
v -95.00000 16.00000 -100.00000
v -95.00000 17.00000 -100.00000
v -44.00000 82.00000 -100.00000
v -95.00000 81.00000 -100.00000
v -95.00000 82.00000 -100.00000
v -44.00000 15.00000 -100.00000
v -94.00000 15.00000 -100.00000
v -94.00000 16.00000 -100.00000
v -44.00000 83.00000 -100.00000
v -94.00000 82.00000 -100.00000
v -94.00000 83.00000 -100.00000
v -44.00000 14.00000 -100.00000
v -93.00000 14.00000 -100.00000
v -93.00000 15.00000 -100.00000
v -44.00000 84.00000 -100.00000
v -93.00000 83.00000 -100.00000
v -93.00000 84.00000 -100.00000
v -44.00000 13.00000 -100.00000
v -92.00000 13.00000 -100.00000
v -92.00000 14.00000 -100.00000
v -44.00000 85.00000 -100.00000
v -92.00000 84.00000 -100.00000
v -92.00000 85.00000 -100.00000
v -44.00000 12.00000 -100.00000
v -91.00000 12.00000 -100.00000
v -91.00000 13.00000 -100.00000
v -44.00000 86.00000 -100.00000
v -91.00000 85.00000 -100.00000
v -91.00000 86.00000 -100.00000
v -44.00000 11.00000 -100.00000
v -90.00000 11.00000 -100.00000
v -90.00000 12.00000 -100.00000
v -44.00000 87.00000 -100.00000
v -90.00000 86.00000 -100.00000
v -90.00000 87.00000 -100.00000
v -44.00000 10.00000 -100.00000
v -89.00000 10.00000 -100.00000
v -89.00000 11.00000 -100.00000
v -44.00000 88.00000 -100.00000
v -89.00000 87.00000 -100.00000
v -89.00000 88.00000 -100.00000
v -44.00000 9.00000 -100.00000
v -88.00000 9.00000 -100.00000
v -88.00000 10.00000 -100.00000
v -44.00000 89.00000 -100.00000
v -88.00000 88.00000 -100.00000
v -88.00000 89.00000 -100.00000
v -44.00000 8.00000 -100.00000
v -87.00000 8.00000 -100.00000
v -87.00000 9.00000 -100.00000
v -44.00000 90.00000 -100.00000
v -87.00000 89.00000 -100.00000
v -87.00000 90.00000 -100.00000
v -100.00000 77.00000 -98.00000
v -100.00000 21.00000 -98.00000
v -44.00000 21.00000 -98.00000
v -44.00000 77.00000 -98.00000
v -99.00000 21.00000 -98.00000
v -99.00000 20.00000 -98.00000
v -44.00000 20.00000 -98.00000
v -99.00000 78.00000 -98.00000
v -99.00000 77.00000 -98.00000
v -44.00000 78.00000 -98.00000
v -98.00000 20.00000 -98.00000
v -98.00000 19.00000 -98.00000
v -44.00000 19.00000 -98.00000
v -98.00000 79.00000 -98.00000
v -98.00000 78.00000 -98.00000
v -44.00000 79.00000 -98.00000
v -97.00000 19.00000 -98.00000
v -97.00000 18.00000 -98.00000
v -44.00000 18.00000 -98.00000
v -97.00000 80.00000 -98.00000
v -97.00000 79.00000 -98.00000
v -44.00000 80.00000 -98.00000
v -96.00000 18.00000 -98.00000
v -96.00000 17.00000 -98.00000
v -44.00000 17.00000 -98.00000
v -96.00000 81.00000 -98.00000
v -96.00000 80.00000 -98.00000
v -44.00000 81.00000 -98.00000
v -95.00000 17.00000 -98.00000
v -95.00000 16.00000 -98.00000
v -44.00000 16.00000 -98.00000
v -95.00000 82.00000 -98.00000
v -95.00000 81.00000 -98.00000
v -44.00000 82.00000 -98.00000
v -94.00000 16.00000 -98.00000
v -94.00000 15.00000 -98.00000
v -44.00000 15.00000 -98.00000
v -94.00000 83.00000 -98.00000
v -94.00000 82.00000 -98.00000
v -44.00000 83.00000 -98.00000
v -93.00000 15.00000 -98.00000
v -93.00000 14.00000 -98.00000
v -44.00000 14.00000 -98.00000
v -93.00000 84.00000 -98.00000
v -93.00000 83.00000 -98.00000
v -44.00000 84.00000 -98.00000
v -92.00000 14.00000 -98.00000
v -92.00000 13.00000 -98.00000
v -44.00000 13.00000 -98.00000
v -92.00000 85.00000 -98.00000
v -92.00000 84.00000 -98.00000
v -44.00000 85.00000 -98.00000
v -91.00000 13.00000 -98.00000
v -91.00000 12.00000 -98.00000
v -44.00000 12.00000 -98.00000
v -91.00000 86.00000 -98.00000
v -91.00000 85.00000 -98.00000
v -44.00000 86.00000 -98.00000
v -90.00000 12.00000 -98.00000
v -90.00000 11.00000 -98.00000
v -44.00000 11.00000 -98.00000
v -90.00000 87.00000 -98.00000
v -90.00000 86.00000 -98.00000
v -44.00000 87.00000 -98.00000
v -89.00000 11.00000 -98.00000
v -89.00000 10.00000 -98.00000
v -44.00000 10.00000 -98.00000
v -89.00000 88.00000 -98.00000
v -89.00000 87.00000 -98.00000
v -44.00000 88.00000 -98.00000
v -88.00000 10.00000 -98.00000
v -88.00000 9.00000 -98.00000
v -44.00000 9.00000 -98.00000
v -88.00000 89.00000 -98.00000
v -88.00000 88.00000 -98.00000
v -44.00000 89.00000 -98.00000
v -87.00000 9.00000 -98.00000
v -87.00000 8.00000 -98.00000
v -44.00000 8.00000 -98.00000
v -87.00000 90.00000 -98.00000
v -87.00000 89.00000 -98.00000
v -44.00000 90.00000 -98.00000

vt 0.00391 0.64844
vt 0.00391 0.00781
vt 0.01172 0.00781
vt 0.01172 0.64844
vt 0.01953 0.44531
vt 0.01953 0.00781
vt 0.23828 0.00781
vt 0.23828 0.44531
vt 0.24609 0.44531
vt 0.24609 0.00781
vt 0.46484 0.00781
vt 0.46484 0.44531
vt 0.47266 0.44531
vt 0.47266 0.00781
vt 0.48047 0.00781
vt 0.48047 0.44531
vt 0.48828 0.02344
vt 0.48828 0.00781
vt 0.65625 0.00781
vt 0.65625 0.02344
vt 0.66406 0.02344
vt 0.66406 0.00781
vt 0.83203 0.00781
vt 0.83203 0.02344
vt 0.83984 0.02344
vt 0.83984 0.00781
vt 0.84375 0.00781
vt 0.84375 0.02344
vt 0.85156 0.02344
vt 0.85156 0.00781
vt 0.85547 0.00781
vt 0.85547 0.02344
vt 0.86328 0.02344
vt 0.86328 0.00781
vt 0.86719 0.00781
vt 0.86719 0.02344
vt 0.87500 0.02344
vt 0.87500 0.00781
vt 0.87891 0.00781
vt 0.87891 0.02344
vt 0.88672 0.02344
vt 0.88672 0.00781
vt 0.89063 0.00781
vt 0.89063 0.02344
vt 0.89844 0.02344
vt 0.89844 0.00781
vt 0.90234 0.00781
vt 0.90234 0.02344
vt 0.91016 0.02344
vt 0.91016 0.00781
vt 0.91406 0.00781
vt 0.91406 0.02344
vt 0.92188 0.02344
vt 0.92188 0.00781
vt 0.92578 0.00781
vt 0.92578 0.02344
vt 0.93359 0.02344
vt 0.93359 0.00781
vt 0.93750 0.00781
vt 0.93750 0.02344
vt 0.94531 0.02344
vt 0.94531 0.00781
vt 0.94922 0.00781
vt 0.94922 0.02344
vt 0.95703 0.02344
vt 0.95703 0.00781
vt 0.96094 0.00781
vt 0.96094 0.02344
vt 0.96875 0.02344
vt 0.96875 0.00781
vt 0.97266 0.00781
vt 0.97266 0.02344
vt 0.98047 0.02344
vt 0.98047 0.00781
vt 0.98438 0.00781
vt 0.98438 0.02344
vt 0.99219 0.02344
vt 0.99219 0.00781
vt 0.99609 0.00781
vt 0.99609 0.02344
vt 0.48828 0.05469
vt 0.48828 0.03906
vt 0.49219 0.03906
vt 0.49219 0.05469
vt 0.50000 0.05469
vt 0.50000 0.03906
vt 0.50391 0.03906
vt 0.50391 0.05469
vt 0.51172 0.05469
vt 0.51172 0.03906
vt 0.51563 0.03906
vt 0.51563 0.05469
vt 0.52344 0.05469
vt 0.52344 0.03906
vt 0.52734 0.03906
vt 0.52734 0.05469
vt 0.53516 0.05469
vt 0.53516 0.03906
vt 0.53906 0.03906
vt 0.53906 0.05469
vt 0.54688 0.05469
vt 0.54688 0.03906
vt 0.55078 0.03906
vt 0.55078 0.05469
vt 0.55859 0.05469
vt 0.55859 0.03906
vt 0.56250 0.03906
vt 0.56250 0.05469
vt 0.57031 0.05469
vt 0.57031 0.03906
vt 0.57422 0.03906
vt 0.57422 0.05469
vt 0.58203 0.05469
vt 0.58203 0.03906
vt 0.58594 0.03906
vt 0.58594 0.05469
vt 0.59375 0.05469
vt 0.59375 0.03906
vt 0.59766 0.03906
vt 0.59766 0.05469
vt 0.60547 0.05469
vt 0.60547 0.03906
vt 0.60938 0.03906
vt 0.60938 0.05469
vt 0.61719 0.05469
vt 0.61719 0.03906
vt 0.62109 0.03906
vt 0.62109 0.05469
vt 0.62891 0.04688
vt 0.62891 0.03906
vt 0.84375 0.03906
vt 0.84375 0.04688
vt 0.48828 0.07813
vt 0.48828 0.07031
vt 0.70313 0.07031
vt 0.70313 0.07813
vt 0.71094 0.07813
vt 0.71094 0.07031
vt 0.92578 0.07031
vt 0.92578 0.07813
vt 0.48828 0.10156
vt 0.48828 0.09375
vt 0.70313 0.09375
vt 0.70313 0.10156
vt 0.71094 0.10156
vt 0.71094 0.09375
vt 0.92188 0.09375
vt 0.92188 0.10156
vt 0.48828 0.12500
vt 0.48828 0.11719
vt 0.69922 0.11719
vt 0.69922 0.12500
vt 0.70703 0.12500
vt 0.70703 0.11719
vt 0.91797 0.11719
vt 0.91797 0.12500
vt 0.48828 0.14844
vt 0.48828 0.14063
vt 0.69922 0.14063
vt 0.69922 0.14844
vt 0.70703 0.14844
vt 0.70703 0.14063
vt 0.91406 0.14063
vt 0.91406 0.14844
vt 0.48828 0.17188
vt 0.48828 0.16406
vt 0.69531 0.16406
vt 0.69531 0.17188
vt 0.70313 0.17188
vt 0.70313 0.16406
vt 0.91016 0.16406
vt 0.91016 0.17188
vt 0.48828 0.19531
vt 0.48828 0.18750
vt 0.69531 0.18750
vt 0.69531 0.19531
vt 0.70313 0.19531
vt 0.70313 0.18750
vt 0.90625 0.18750
vt 0.90625 0.19531
vt 0.48828 0.21875
vt 0.48828 0.21094
vt 0.69141 0.21094
vt 0.69141 0.21875
vt 0.69922 0.21875
vt 0.69922 0.21094
vt 0.90234 0.21094
vt 0.90234 0.21875
vt 0.48828 0.24219
vt 0.48828 0.23438
vt 0.69141 0.23438
vt 0.69141 0.24219
vt 0.69922 0.24219
vt 0.69922 0.23438
vt 0.89844 0.23438
vt 0.89844 0.24219
vt 0.48828 0.26563
vt 0.48828 0.25781
vt 0.68750 0.25781
vt 0.68750 0.26563
vt 0.69531 0.26563
vt 0.69531 0.25781
vt 0.89453 0.25781
vt 0.89453 0.26563
vt 0.48828 0.28906
vt 0.48828 0.28125
vt 0.68750 0.28125
vt 0.68750 0.28906
vt 0.69531 0.28906
vt 0.69531 0.28125
vt 0.89063 0.28125
vt 0.89063 0.28906
vt 0.48828 0.31250
vt 0.48828 0.30469
vt 0.68359 0.30469
vt 0.68359 0.31250
vt 0.69141 0.31250
vt 0.69141 0.30469
vt 0.88672 0.30469
vt 0.88672 0.31250
vt 0.48828 0.33594
vt 0.48828 0.32813
vt 0.68359 0.32813
vt 0.68359 0.33594
vt 0.69141 0.33594
vt 0.69141 0.32813
vt 0.88281 0.32813
vt 0.88281 0.33594
vt 0.48828 0.35938
vt 0.48828 0.35156
vt 0.67969 0.35156
vt 0.67969 0.35938
vt 0.68750 0.35938
vt 0.68750 0.35156
vt 0.87891 0.35156
vt 0.87891 0.35938
vt 0.48828 0.38281
vt 0.48828 0.37500
vt 0.67969 0.37500
vt 0.67969 0.38281
vt 0.68750 0.38281
vt 0.68750 0.37500
vt 0.87500 0.37500
vt 0.87500 0.38281
vt 0.48828 0.40625
vt 0.48828 0.39844
vt 0.67578 0.39844
vt 0.67578 0.40625
vt 0.68359 0.40625
vt 0.68359 0.39844
vt 0.87109 0.39844
vt 0.87109 0.40625
vt 0.48828 0.42969
vt 0.48828 0.42188
vt 0.67578 0.42188
vt 0.67578 0.42969
vt 0.68359 0.42969
vt 0.68359 0.42188
vt 0.86719 0.42188
vt 0.86719 0.42969
vt 0.01953 0.46875
vt 0.01953 0.46094
vt 0.20313 0.46094
vt 0.20313 0.46875
vt 0.21094 0.46875
vt 0.21094 0.46094
vt 0.39453 0.46094
vt 0.39453 0.46875
vt 0.40234 0.46875
vt 0.40234 0.46094
vt 0.58594 0.46094
vt 0.58594 0.46875
vt 0.59375 0.46875
vt 0.59375 0.46094
vt 0.77344 0.46094
vt 0.77344 0.46875
vt 0.78125 0.46875
vt 0.78125 0.46094
vt 0.96094 0.46094
vt 0.96094 0.46875
vt 0.01953 0.49219
vt 0.01953 0.48438
vt 0.19922 0.48438
vt 0.19922 0.49219
vt 0.20703 0.49219
vt 0.20703 0.48438
vt 0.38672 0.48438
vt 0.38672 0.49219
vt 0.39453 0.49219
vt 0.39453 0.48438
vt 0.57031 0.48438
vt 0.57031 0.49219
vt 0.57813 0.49219
vt 0.57813 0.48438
vt 0.75391 0.48438
vt 0.75391 0.49219
vt 0.76172 0.49219
vt 0.76172 0.48438
vt 0.93750 0.48438
vt 0.93750 0.49219
vt 0.01953 0.51563
vt 0.01953 0.50781
vt 0.19531 0.50781
vt 0.19531 0.51563
vt 0.20313 0.51563
vt 0.20313 0.50781
vt 0.37500 0.50781
vt 0.37500 0.51563
vt 0.38281 0.51563
vt 0.38281 0.50781
vt 0.55469 0.50781
vt 0.55469 0.51563
vt 0.56250 0.51563
vt 0.56250 0.50781
vt 0.73438 0.50781
vt 0.73438 0.51563
vt 0.74219 0.51563
vt 0.74219 0.50781
vt 0.91406 0.50781
vt 0.91406 0.51563
vt 0.01953 0.53906
vt 0.01953 0.53125
vt 0.18750 0.53125
vt 0.18750 0.53906
vt 0.19531 0.53906
vt 0.19531 0.53125
vt 0.36328 0.53125
vt 0.36328 0.53906
vt 0.37109 0.53906
vt 0.37109 0.53125
vt 0.53906 0.53125
vt 0.53906 0.53906
vt 0.54688 0.53906
vt 0.54688 0.53125
vt 0.71484 0.53125
vt 0.71484 0.53906
vt 0.85156 0.04688
vt 0.85156 0.03906
vt 0.85938 0.03906
vt 0.85938 0.04688
vt 0.86719 0.04688
vt 0.86719 0.03906
vt 0.87500 0.03906
vt 0.87500 0.04688
vt 0.88281 0.04688
vt 0.88281 0.03906
vt 0.89063 0.03906
vt 0.89063 0.04688
vt 0.89844 0.04688
vt 0.89844 0.03906
vt 0.90625 0.03906
vt 0.90625 0.04688
vt 0.91406 0.04688
vt 0.91406 0.03906
vt 0.92188 0.03906
vt 0.92188 0.04688
vt 0.92969 0.04688
vt 0.92969 0.03906
vt 0.93750 0.03906
vt 0.93750 0.04688
vt 0.94531 0.04688
vt 0.94531 0.03906
vt 0.95313 0.03906
vt 0.95313 0.04688
vt 0.96094 0.04688
vt 0.96094 0.03906
vt 0.96875 0.03906
vt 0.96875 0.04688
vt 0.97656 0.04688
vt 0.97656 0.03906
vt 0.98438 0.03906
vt 0.98438 0.04688
vt 0.93359 0.07813
vt 0.93359 0.07031
vt 0.94141 0.07031
vt 0.94141 0.07813
vt 0.94922 0.07813
vt 0.94922 0.07031
vt 0.95703 0.07031
vt 0.95703 0.07813
vt 0.96484 0.07813
vt 0.96484 0.07031
vt 0.97266 0.07031
vt 0.97266 0.07813
vt 0.98047 0.07813
vt 0.98047 0.07031
vt 0.98828 0.07031
vt 0.98828 0.07813
vt 0.92969 0.10156
vt 0.92969 0.09375
vt 0.93750 0.09375
vt 0.93750 0.10156
vt 0.94531 0.10156
vt 0.94531 0.09375
vt 0.95313 0.09375
vt 0.95313 0.10156
vt 0.96094 0.10156
vt 0.96094 0.09375
vt 0.96875 0.09375
vt 0.96875 0.10156
vt 0.97656 0.10156
vt 0.97656 0.09375
vt 0.98438 0.09375
vt 0.98438 0.10156
vt 0.92578 0.12500
vt 0.92578 0.11719
vt 0.93359 0.11719
vt 0.93359 0.12500
vt 0.94141 0.12500
vt 0.94141 0.11719
vt 0.94922 0.11719
vt 0.94922 0.12500
vt 0.95703 0.12500
vt 0.95703 0.11719
vt 0.96484 0.11719
vt 0.96484 0.12500
vt 0.97266 0.12500
vt 0.97266 0.11719
vt 0.98047 0.11719
vt 0.98047 0.12500
vt 0.98828 0.12500
vt 0.98828 0.11719
vt 0.99609 0.11719
vt 0.99609 0.12500
vt 0.92188 0.14844
vt 0.92188 0.14063
vt 0.92969 0.14063
vt 0.92969 0.14844
vt 0.93750 0.14844
vt 0.93750 0.14063
vt 0.94531 0.14063
vt 0.94531 0.14844
vt 0.95313 0.14844
vt 0.95313 0.14063
vt 0.96094 0.14063
vt 0.96094 0.14844
vt 0.96875 0.14844
vt 0.96875 0.14063
vt 0.97656 0.14063
vt 0.97656 0.14844
vt 0.01172 0.54688
vt 0.01172 0.55469
vt 0.01172 0.56250
vt 0.01172 0.57031
vt 0.01172 0.57813
vt 0.01172 0.58594
vt 0.01172 0.59375
vt 0.01172 0.60156
vt 0.01172 0.60938
vt 0.01172 0.61719
vt 0.01172 0.62500
vt 0.01172 0.63281
vt 0.01172 0.64063
vt 0.00391 0.10938
vt 0.00391 0.10156
vt 0.00391 0.09375
vt 0.00391 0.08594
vt 0.00391 0.07813
vt 0.00391 0.07031
vt 0.00391 0.06250
vt 0.00391 0.05469
vt 0.00391 0.04688
vt 0.00391 0.03906
vt 0.00391 0.03125
vt 0.00391 0.02344
vt 0.00391 0.01563
vt 0.02344 0.44531
vt 0.02344 0.00781
vt 0.46094 0.44531
vt 0.46094 0.00781
vt 0.63281 0.03906
vt 0.49219 0.07813
vt 0.92188 0.07813
vt 0.69922 0.09375
vt 0.71484 0.09375
vt 0.69531 0.11719
vt 0.91406 0.12500
vt 0.49219 0.14844
vt 0.71094 0.14844
vt 0.49219 0.16406
vt 0.90625 0.17188
vt 0.69141 0.18750
vt 0.90234 0.18750
vt 0.49219 0.21094
vt 0.70313 0.21875
vt 0.68750 0.24219
vt 0.70313 0.24219
vt 0.49219 0.25781
vt 0.89063 0.26563
vt 0.68359 0.28125
vt 0.88672 0.28906
vt 0.67969 0.30469
vt 0.69531 0.30469
vt 0.49219 0.33594
vt 0.69531 0.33594
vt 0.49219 0.35156
vt 0.87500 0.35938
vt 0.67578 0.37500
vt 0.69141 0.37500
vt 0.49219 0.40625
vt 0.86719 0.40625
vt 0.67188 0.42188
vt 0.86328 0.42188
vt 0.19922 0.46875
vt 0.21484 0.46094
vt 0.40625 0.46875
vt 0.59766 0.46875
vt 0.78516 0.46094
vt 0.19531 0.48438
vt 0.38281 0.49219
vt 0.56641 0.48438
vt 0.58203 0.48438
vt 0.76563 0.49219
vt 0.19141 0.51563
vt 0.20703 0.51563
vt 0.38672 0.50781
vt 0.73047 0.50781
vt 0.91016 0.51563

g GlassDoor
usemtl GlassDoor_Material
f 80/4/4 164/1/4 85/454/4
f 85/454/4 74/453/4 80/4/4
f 74/453/4 85/454/4 89/455/4
f 89/455/4 68/452/4 74/453/4
f 68/452/4 89/455/4 95/456/4
f 95/456/4 62/451/4 68/452/4
f 62/451/4 95/456/4 101/457/4
f 101/457/4 56/450/4 62/451/4
f 56/450/4 101/457/4 107/458/4
f 107/458/4 50/449/4 56/450/4
f 50/449/4 107/458/4 113/459/4
f 113/459/4 44/448/4 50/449/4
f 44/448/4 113/459/4 119/460/4
f 119/460/4 38/447/4 44/448/4
f 38/447/4 119/460/4 125/461/4
f 125/461/4 32/446/4 38/447/4
f 32/446/4 125/461/4 131/462/4
f 131/462/4 26/445/4 32/446/4
f 26/445/4 131/462/4 137/463/4
f 137/463/4 20/444/4 26/445/4
f 20/444/4 137/463/4 143/464/4
f 143/464/4 14/443/4 20/444/4
f 14/443/4 143/464/4 149/465/4
f 149/465/4 8/442/4 14/443/4
f 8/442/4 149/465/4 155/466/4
f 155/466/4 1/441/4 8/442/4
f 1/441/4 155/466/4 161/2/4
f 161/2/4 77/3/4 1/441/4
f 91/467/1 83/5/1 84/6/1
f 84/6/1 86/8/1 91/467/1
f 86/8/1 84/6/1 87/468/1
f 87/468/1 85/7/1 86/8/1
f 9/469/2 1/9/2 2/10/2
f 2/10/2 4/12/2 9/469/2
f 4/12/2 2/10/2 7/470/2
f 7/470/2 3/11/2 4/12/2
f 3/14/3 83/16/3 4/13/3
f 3/14/3 84/15/3 83/16/3
f 82/17/5 162/18/5 80/20/5
f 162/18/5 164/19/5 80/20/5
f 160/21/6 78/22/6 161/24/6
f 78/22/6 77/23/6 161/24/6
f 22/25/5 102/26/5 27/28/5
f 102/26/5 109/27/5 27/28/5
f 28/29/5 108/30/5 33/32/5
f 108/30/5 115/31/5 33/32/5
f 46/33/5 126/34/5 51/36/5
f 126/34/5 133/35/5 51/36/5
f 40/37/5 120/38/5 45/40/5
f 120/38/5 127/39/5 45/40/5
f 34/41/5 114/42/5 39/44/5
f 114/42/5 121/43/5 39/44/5
f 16/45/5 96/46/5 21/48/5
f 96/46/5 103/47/5 21/48/5
f 154/49/6 72/50/6 159/52/6
f 72/50/6 79/51/6 159/52/6
f 148/53/6 66/54/6 153/56/6
f 66/54/6 73/55/6 153/56/6
f 142/57/6 60/58/6 147/60/6
f 60/58/6 67/59/6 147/60/6
f 10/61/5 90/62/5 15/64/5
f 90/62/5 97/63/5 15/64/5
f 4/65/5 83/66/5 9/68/5
f 83/66/5 91/67/5 9/68/5
f 136/69/6 54/70/6 141/72/6
f 54/70/6 61/71/6 141/72/6
f 52/73/5 132/74/5 57/76/5
f 132/74/5 139/75/5 57/76/5
f 112/77/6 30/78/6 117/80/6
f 30/78/6 37/79/6 117/80/6
f 106/81/6 24/82/6 111/84/6
f 24/82/6 31/83/6 111/84/6
f 100/85/6 18/86/6 105/88/6
f 18/86/6 25/87/6 105/88/6
f 130/89/6 48/90/6 135/92/6
f 48/90/6 55/91/6 135/92/6
f 124/93/6 42/94/6 129/96/6
f 42/94/6 49/95/6 129/96/6
f 118/97/6 36/98/6 123/100/6
f 36/98/6 43/99/6 123/100/6
f 94/101/6 12/102/6 99/104/6
f 12/102/6 19/103/6 99/104/6
f 70/105/5 150/106/5 75/108/5
f 150/106/5 157/107/5 75/108/5
f 64/109/5 144/110/5 69/112/5
f 144/110/5 151/111/5 69/112/5
f 58/113/5 138/114/5 63/116/5
f 138/114/5 145/115/5 63/116/5
f 88/117/6 6/118/6 93/120/6
f 6/118/6 13/119/6 93/120/6
f 84/121/6 3/122/6 87/124/6
f 3/122/6 7/123/6 87/124/6
f 76/125/5 156/126/5 81/128/5
f 156/126/5 163/127/5 81/128/5
f 85/132/1 87/129/1 88/130/1
f 88/130/1 89/131/1 85/132/1
f 89/131/1 88/130/1 93/471/1
f 97/472/1 90/133/1 91/134/1
f 91/134/1 92/136/1 97/472/1
f 92/136/1 91/134/1 86/135/1
f 15/473/2 8/137/2 1/138/2
f 1/138/2 10/140/2 15/473/2
f 10/140/2 1/138/2 9/139/2
f 7/144/2 2/141/2 5/142/2
f 5/142/2 6/143/2 7/144/2
f 6/143/2 5/142/2 13/474/2
f 89/148/1 93/145/1 94/146/1
f 94/146/1 95/147/1 89/148/1
f 95/147/1 94/146/1 99/475/1
f 13/152/2 5/149/2 11/150/2
f 11/150/2 12/151/2 13/152/2
f 12/151/2 11/150/2 19/476/2
f 21/477/2 14/153/2 8/154/2
f 8/154/2 16/156/2 21/477/2
f 16/156/2 8/154/2 15/155/2
f 103/478/1 96/157/1 97/158/1
f 97/158/1 98/160/1 103/478/1
f 98/160/1 97/158/1 92/159/1
f 109/479/1 102/161/1 103/162/1
f 103/162/1 104/164/1 109/479/1
f 104/164/1 103/162/1 98/163/1
f 95/168/1 99/165/1 100/166/1
f 100/166/1 101/167/1 95/168/1
f 101/167/1 100/166/1 105/480/1
f 27/481/2 20/169/2 14/170/2
f 14/170/2 22/172/2 27/481/2
f 22/172/2 14/170/2 21/171/2
f 19/176/2 11/173/2 17/174/2
f 17/174/2 18/175/2 19/176/2
f 18/175/2 17/174/2 25/482/2
f 25/180/2 17/177/2 23/178/2
f 23/178/2 24/179/2 25/180/2
f 24/179/2 23/178/2 31/483/2
f 101/184/1 105/181/1 106/182/1
f 106/182/1 107/183/1 101/184/1
f 107/183/1 106/182/1 111/484/1
f 115/485/1 108/185/1 109/186/1
f 109/186/1 110/188/1 115/485/1
f 110/188/1 109/186/1 104/187/1
f 33/486/2 26/189/2 20/190/2
f 20/190/2 28/192/2 33/486/2
f 28/192/2 20/190/2 27/191/2
f 121/487/1 114/193/1 115/194/1
f 115/194/1 116/196/1 121/487/1
f 116/196/1 115/194/1 110/195/1
f 107/200/1 111/197/1 112/198/1
f 112/198/1 113/199/1 107/200/1
f 113/199/1 112/198/1 117/488/1
f 39/489/2 32/201/2 26/202/2
f 26/202/2 34/204/2 39/489/2
f 34/204/2 26/202/2 33/203/2
f 31/208/2 23/205/2 29/206/2
f 29/206/2 30/207/2 31/208/2
f 30/207/2 29/206/2 37/490/2
f 45/491/2 38/209/2 32/210/2
f 32/210/2 40/212/2 45/491/2
f 40/212/2 32/210/2 39/211/2
f 37/216/2 29/213/2 35/214/2
f 35/214/2 36/215/2 37/216/2
f 36/215/2 35/214/2 43/492/2
f 113/220/1 117/217/1 118/218/1
f 118/218/1 119/219/1 113/220/1
f 119/219/1 118/218/1 123/493/1
f 127/494/1 120/221/1 121/222/1
f 121/222/1 122/224/1 127/494/1
f 122/224/1 121/222/1 116/223/1
f 133/495/1 126/225/1 127/226/1
f 127/226/1 128/228/1 133/495/1
f 128/228/1 127/226/1 122/227/1
f 119/232/1 123/229/1 124/230/1
f 124/230/1 125/231/1 119/232/1
f 125/231/1 124/230/1 129/496/1
f 51/497/2 44/233/2 38/234/2
f 38/234/2 46/236/2 51/497/2
f 46/236/2 38/234/2 45/235/2
f 43/240/2 35/237/2 41/238/2
f 41/238/2 42/239/2 43/240/2
f 42/239/2 41/238/2 49/498/2
f 125/244/1 129/241/1 130/242/1
f 130/242/1 131/243/1 125/244/1
f 131/243/1 130/242/1 135/499/1
f 139/500/1 132/245/1 133/246/1
f 133/246/1 134/248/1 139/500/1
f 134/248/1 133/246/1 128/247/1
f 57/501/2 50/249/2 44/250/2
f 44/250/2 52/252/2 57/501/2
f 52/252/2 44/250/2 51/251/2
f 49/256/2 41/253/2 47/254/2
f 47/254/2 48/255/2 49/256/2
f 48/255/2 47/254/2 55/502/2
f 55/260/2 47/257/2 53/258/2
f 53/258/2 54/259/2 55/260/2
f 54/259/2 53/258/2 61/503/2
f 63/504/2 56/261/2 50/262/2
f 50/262/2 58/264/2 63/504/2
f 58/264/2 50/262/2 57/263/2
f 131/268/1 135/265/1 136/266/1
f 136/266/1 137/267/1 131/268/1
f 137/267/1 136/266/1 141/505/1
f 145/506/1 138/269/1 139/270/1
f 139/270/1 140/272/1 145/506/1
f 140/272/1 139/270/1 134/271/1
f 151/507/1 144/273/1 145/274/1
f 145/274/1 146/276/1 151/507/1
f 146/276/1 145/274/1 140/275/1
f 137/280/1 141/277/1 142/278/1
f 142/278/1 143/279/1 137/280/1
f 143/279/1 142/278/1 147/508/1
f 61/284/2 53/281/2 59/282/2
f 59/282/2 60/283/2 61/284/2
f 60/283/2 59/282/2 67/509/2
f 69/510/2 62/285/2 56/286/2
f 56/286/2 64/288/2 69/510/2
f 64/288/2 56/286/2 63/287/2
f 67/292/2 59/289/2 65/290/2
f 65/290/2 66/291/2 67/292/2
f 66/291/2 65/290/2 73/511/2
f 143/296/1 147/293/1 148/294/1
f 148/294/1 149/295/1 143/296/1
f 149/295/1 148/294/1 153/512/1
f 157/513/1 150/297/1 151/298/1
f 151/298/1 152/300/1 157/513/1
f 152/300/1 151/298/1 146/299/1
f 75/514/2 68/301/2 62/302/2
f 62/302/2 70/304/2 75/514/2
f 70/304/2 62/302/2 69/303/2
f 163/515/1 156/305/1 157/306/1
f 157/306/1 158/308/1 163/515/1
f 158/308/1 157/306/1 152/307/1
f 149/312/1 153/309/1 154/310/1
f 154/310/1 155/311/1 149/312/1
f 155/311/1 154/310/1 159/516/1
f 73/316/2 65/313/2 71/314/2
f 71/314/2 72/315/2 73/316/2
f 72/315/2 71/314/2 79/517/2
f 81/518/2 74/317/2 68/318/2
f 68/318/2 76/320/2 81/518/2
f 76/320/2 68/318/2 75/319/2
f 77/322/2 79/324/2 71/321/2
f 77/322/2 78/323/2 79/324/2
f 74/326/2 82/328/2 80/325/2
f 74/326/2 81/327/2 82/328/2
f 163/330/1 164/332/1 162/329/1
f 163/330/1 158/331/1 164/332/1
f 160/334/1 155/336/1 159/333/1
f 160/334/1 161/335/1 155/336/1
f 54/338/3 135/340/3 55/337/3
f 54/338/3 136/339/3 135/340/3
f 57/342/3 138/344/3 58/341/3
f 57/342/3 139/343/3 138/344/3
f 60/346/3 141/348/3 61/345/3
f 60/346/3 142/347/3 141/348/3
f 45/350/3 126/352/3 46/349/3
f 45/350/3 127/351/3 126/352/3
f 48/354/3 129/356/3 49/353/3
f 48/354/3 130/355/3 129/356/3
f 51/358/3 132/360/3 52/357/3
f 51/358/3 133/359/3 132/360/3
f 63/362/3 144/364/3 64/361/3
f 63/362/3 145/363/3 144/364/3
f 75/366/3 156/368/3 76/365/3
f 75/366/3 157/367/3 156/368/3
f 78/370/3 159/372/3 79/369/3
f 78/370/3 160/371/3 159/372/3
f 81/374/3 162/376/3 82/373/3
f 81/374/3 163/375/3 162/376/3
f 66/378/3 147/380/3 67/377/3
f 66/378/3 148/379/3 147/380/3
f 69/382/3 150/384/3 70/381/3
f 69/382/3 151/383/3 150/384/3
f 72/386/3 153/388/3 73/385/3
f 72/386/3 154/387/3 153/388/3
f 15/390/3 96/392/3 16/389/3
f 15/390/3 97/391/3 96/392/3
f 18/394/3 99/396/3 19/393/3
f 18/394/3 100/395/3 99/396/3
f 21/398/3 102/400/3 22/397/3
f 21/398/3 103/399/3 102/400/3
f 6/402/3 87/404/3 7/401/3
f 6/402/3 88/403/3 87/404/3
f 9/406/3 90/408/3 10/405/3
f 9/406/3 91/407/3 90/408/3
f 12/410/3 93/412/3 13/409/3
f 12/410/3 94/411/3 93/412/3
f 24/414/3 105/416/3 25/413/3
f 24/414/3 106/415/3 105/416/3
f 36/418/3 117/420/3 37/417/3
f 36/418/3 118/419/3 117/420/3
f 39/422/3 120/424/3 40/421/3
f 39/422/3 121/423/3 120/424/3
f 42/426/3 123/428/3 43/425/3
f 42/426/3 124/427/3 123/428/3
f 27/430/3 108/432/3 28/429/3
f 27/430/3 109/431/3 108/432/3
f 30/434/3 111/436/3 31/433/3
f 30/434/3 112/435/3 111/436/3
f 33/438/3 114/440/3 34/437/3
f 33/438/3 115/439/3 114/440/3
