# This file was created with Minddesk Qubicle 3.0
# Get Qubicle at www.getqubicle.com

mtllib Window_Small.mtl

vn 0.0 0.0 1.0
vn 0.0 0.0 -1.0
vn -1.0 0.0 0.0
vn 1.0 0.0 0.0
vn 0.0 1.0 0.0
vn 0.0 -1.0 0.0

v -61.00000 83.00000 -90.00000
v -61.00000 45.00000 -90.00000
v -100.00000 45.00000 -90.00000
v -100.00000 83.00000 -90.00000
v -62.00000 45.00000 -90.00000
v -62.00000 42.00000 -90.00000
v -99.00000 42.00000 -90.00000
v -99.00000 45.00000 -90.00000
v -62.00000 86.00000 -90.00000
v -62.00000 83.00000 -90.00000
v -99.00000 83.00000 -90.00000
v -99.00000 86.00000 -90.00000
v -63.00000 42.00000 -90.00000
v -63.00000 41.00000 -90.00000
v -98.00000 41.00000 -90.00000
v -98.00000 42.00000 -90.00000
v -63.00000 87.00000 -90.00000
v -63.00000 86.00000 -90.00000
v -98.00000 86.00000 -90.00000
v -98.00000 87.00000 -90.00000
v -64.00000 41.00000 -90.00000
v -64.00000 40.00000 -90.00000
v -97.00000 40.00000 -90.00000
v -97.00000 41.00000 -90.00000
v -64.00000 88.00000 -90.00000
v -64.00000 87.00000 -90.00000
v -97.00000 87.00000 -90.00000
v -97.00000 88.00000 -90.00000
v -65.00000 40.00000 -90.00000
v -65.00000 39.00000 -90.00000
v -96.00000 39.00000 -90.00000
v -96.00000 40.00000 -90.00000
v -65.00000 89.00000 -90.00000
v -65.00000 88.00000 -90.00000
v -96.00000 88.00000 -90.00000
v -96.00000 89.00000 -90.00000
v -68.00000 39.00000 -90.00000
v -68.00000 38.00000 -90.00000
v -93.00000 38.00000 -90.00000
v -93.00000 39.00000 -90.00000
v -68.00000 90.00000 -90.00000
v -68.00000 89.00000 -90.00000
v -93.00000 89.00000 -90.00000
v -93.00000 90.00000 -90.00000
v -100.00000 83.00000 -89.00000
v -100.00000 45.00000 -89.00000
v -61.00000 45.00000 -89.00000
v -61.00000 83.00000 -89.00000
v -99.00000 45.00000 -89.00000
v -99.00000 42.00000 -89.00000
v -62.00000 42.00000 -89.00000
v -62.00000 45.00000 -89.00000
v -99.00000 86.00000 -89.00000
v -99.00000 83.00000 -89.00000
v -62.00000 83.00000 -89.00000
v -62.00000 86.00000 -89.00000
v -98.00000 42.00000 -89.00000
v -98.00000 41.00000 -89.00000
v -63.00000 41.00000 -89.00000
v -63.00000 42.00000 -89.00000
v -98.00000 87.00000 -89.00000
v -98.00000 86.00000 -89.00000
v -63.00000 86.00000 -89.00000
v -63.00000 87.00000 -89.00000
v -97.00000 41.00000 -89.00000
v -97.00000 40.00000 -89.00000
v -64.00000 40.00000 -89.00000
v -64.00000 41.00000 -89.00000
v -97.00000 88.00000 -89.00000
v -97.00000 87.00000 -89.00000
v -64.00000 87.00000 -89.00000
v -64.00000 88.00000 -89.00000
v -96.00000 40.00000 -89.00000
v -96.00000 39.00000 -89.00000
v -65.00000 39.00000 -89.00000
v -65.00000 40.00000 -89.00000
v -96.00000 89.00000 -89.00000
v -96.00000 88.00000 -89.00000
v -65.00000 88.00000 -89.00000
v -65.00000 89.00000 -89.00000
v -93.00000 39.00000 -89.00000
v -93.00000 38.00000 -89.00000
v -68.00000 38.00000 -89.00000
v -68.00000 39.00000 -89.00000
v -93.00000 90.00000 -89.00000
v -93.00000 89.00000 -89.00000
v -68.00000 89.00000 -89.00000
v -68.00000 90.00000 -89.00000

vt 0.00781 0.60938
vt 0.00781 0.01563
vt 0.31250 0.01563
vt 0.31250 0.60938
vt 0.32813 0.60938
vt 0.32813 0.01563
vt 0.63281 0.01563
vt 0.63281 0.60938
vt 0.64844 0.60938
vt 0.64844 0.01563
vt 0.65625 0.01563
vt 0.65625 0.60938
vt 0.67188 0.60938
vt 0.67188 0.01563
vt 0.67969 0.01563
vt 0.67969 0.60938
vt 0.69531 0.06250
vt 0.69531 0.01563
vt 0.98438 0.01563
vt 0.98438 0.06250
vt 0.69531 0.14063
vt 0.69531 0.09375
vt 0.98438 0.09375
vt 0.98438 0.14063
vt 0.69531 0.21875
vt 0.69531 0.17188
vt 0.98438 0.17188
vt 0.98438 0.21875
vt 0.69531 0.29688
vt 0.69531 0.25000
vt 0.98438 0.25000
vt 0.98438 0.29688
vt 0.69531 0.37500
vt 0.69531 0.32813
vt 0.70313 0.32813
vt 0.70313 0.37500
vt 0.71875 0.37500
vt 0.71875 0.32813
vt 0.72656 0.32813
vt 0.72656 0.37500
vt 0.74219 0.37500
vt 0.74219 0.32813
vt 0.75000 0.32813
vt 0.75000 0.37500
vt 0.76563 0.37500
vt 0.76563 0.32813
vt 0.77344 0.32813
vt 0.77344 0.37500
vt 0.69531 0.42188
vt 0.69531 0.40625
vt 0.96875 0.40625
vt 0.96875 0.42188
vt 0.69531 0.46875
vt 0.69531 0.45313
vt 0.96875 0.45313
vt 0.96875 0.46875
vt 0.69531 0.51563
vt 0.69531 0.50000
vt 0.96875 0.50000
vt 0.96875 0.51563
vt 0.69531 0.56250
vt 0.69531 0.54688
vt 0.96875 0.54688
vt 0.96875 0.56250
vt 0.69531 0.60938
vt 0.69531 0.59375
vt 0.95313 0.59375
vt 0.95313 0.60938
vt 0.00781 0.65625
vt 0.00781 0.64063
vt 0.26563 0.64063
vt 0.26563 0.65625
vt 0.28125 0.65625
vt 0.28125 0.64063
vt 0.53906 0.64063
vt 0.53906 0.65625
vt 0.55469 0.65625
vt 0.55469 0.64063
vt 0.81250 0.64063
vt 0.81250 0.65625
vt 0.00781 0.70313
vt 0.00781 0.68750
vt 0.25000 0.68750
vt 0.25000 0.70313
vt 0.26563 0.70313
vt 0.26563 0.68750
vt 0.50781 0.68750
vt 0.50781 0.70313
vt 0.52344 0.70313
vt 0.52344 0.68750
vt 0.76563 0.68750
vt 0.76563 0.70313
vt 0.00781 0.75000
vt 0.00781 0.73438
vt 0.25000 0.73438
vt 0.25000 0.75000
vt 0.78906 0.34375
vt 0.78906 0.32813
vt 0.98438 0.32813
vt 0.98438 0.34375
vt 0.78125 0.70313
vt 0.78125 0.68750
vt 0.97656 0.68750
vt 0.97656 0.70313
vt 0.26563 0.75000
vt 0.26563 0.73438
vt 0.46094 0.73438
vt 0.46094 0.75000
vt 0.47656 0.75000
vt 0.47656 0.73438
vt 0.67188 0.73438
vt 0.67188 0.75000
vt 0.68750 0.75000
vt 0.68750 0.73438
vt 0.88281 0.73438
vt 0.88281 0.75000
vt 0.00781 0.79688
vt 0.00781 0.78125
vt 0.20313 0.78125
vt 0.20313 0.79688
vt 0.96875 0.60938
vt 0.96875 0.59375
vt 0.99219 0.59375
vt 0.99219 0.60938
vt 0.82813 0.65625
vt 0.82813 0.64063
vt 0.85156 0.64063
vt 0.85156 0.65625
vt 0.86719 0.65625
vt 0.86719 0.64063
vt 0.89063 0.64063
vt 0.89063 0.65625
vt 0.90625 0.65625
vt 0.90625 0.64063
vt 0.92969 0.64063
vt 0.92969 0.65625
vt 0.98438 0.42188
vt 0.98438 0.40625
vt 0.99219 0.40625
vt 0.99219 0.42188
vt 0.98438 0.46875
vt 0.98438 0.45313
vt 0.99219 0.45313
vt 0.99219 0.46875
vt 0.98438 0.51563
vt 0.98438 0.50000
vt 0.99219 0.50000
vt 0.99219 0.51563
vt 0.98438 0.56250
vt 0.98438 0.54688
vt 0.99219 0.54688
vt 0.99219 0.56250
vt 0.94531 0.65625
vt 0.94531 0.64063
vt 0.95313 0.64063
vt 0.95313 0.65625
vt 0.96875 0.65625
vt 0.96875 0.64063
vt 0.97656 0.64063
vt 0.97656 0.65625
vt 0.89844 0.75000
vt 0.89844 0.73438
vt 0.90625 0.73438
vt 0.90625 0.75000
vt 0.92188 0.75000
vt 0.92188 0.73438
vt 0.92969 0.73438
vt 0.92969 0.75000
vt 0.94531 0.75000
vt 0.94531 0.73438
vt 0.95313 0.73438
vt 0.95313 0.75000
vt 0.96875 0.75000
vt 0.96875 0.73438
vt 0.97656 0.73438
vt 0.97656 0.75000
vt 0.21875 0.79688
vt 0.21875 0.78125
vt 0.22656 0.78125
vt 0.22656 0.79688
vt 0.24219 0.79688
vt 0.24219 0.78125
vt 0.25000 0.78125
vt 0.25000 0.79688
vt 0.26563 0.79688
vt 0.26563 0.78125
vt 0.27344 0.78125
vt 0.27344 0.79688
vt 0.28906 0.79688
vt 0.28906 0.78125
vt 0.29688 0.78125
vt 0.29688 0.79688
vt 0.31250 0.79688
vt 0.31250 0.78125
vt 0.32031 0.78125
vt 0.32031 0.79688
vt 0.33594 0.79688
vt 0.33594 0.78125
vt 0.34375 0.78125
vt 0.34375 0.79688
vt 0.35938 0.79688
vt 0.35938 0.78125
vt 0.36719 0.78125
vt 0.36719 0.79688
vt 0.38281 0.79688
vt 0.38281 0.78125
vt 0.39063 0.78125
vt 0.39063 0.79688
vt 0.40625 0.79688
vt 0.40625 0.78125
vt 0.41406 0.78125
vt 0.41406 0.79688
vt 0.42969 0.79688
vt 0.42969 0.78125
vt 0.43750 0.78125
vt 0.43750 0.79688
vt 0.45313 0.79688
vt 0.45313 0.78125
vt 0.46094 0.78125
vt 0.46094 0.79688
vt 0.47656 0.79688
vt 0.47656 0.78125
vt 0.48438 0.78125
vt 0.48438 0.79688
vt 0.50000 0.79688
vt 0.50000 0.78125
vt 0.50781 0.78125
vt 0.50781 0.79688
vt 0.52344 0.79688
vt 0.52344 0.78125
vt 0.53125 0.78125
vt 0.53125 0.79688
vt 0.54688 0.79688
vt 0.54688 0.78125
vt 0.55469 0.78125
vt 0.55469 0.79688
vt 0.57031 0.79688
vt 0.57031 0.78125
vt 0.57813 0.78125
vt 0.57813 0.79688
vt 0.59375 0.79688
vt 0.59375 0.78125
vt 0.60156 0.78125
vt 0.60156 0.79688
vt 0.61719 0.79688
vt 0.61719 0.78125
vt 0.62500 0.78125
vt 0.62500 0.79688
vt 0.64063 0.79688
vt 0.64063 0.78125
vt 0.64844 0.78125
vt 0.64844 0.79688
vt 0.66406 0.79688
vt 0.66406 0.78125
vt 0.67188 0.78125
vt 0.67188 0.79688
vt 0.68750 0.79688
vt 0.68750 0.78125
vt 0.69531 0.78125
vt 0.69531 0.79688
vt 0.71094 0.79688
vt 0.71094 0.78125
vt 0.71875 0.78125
vt 0.71875 0.79688
vt 0.01563 0.60938
vt 0.30469 0.60938
vt 0.01563 0.01563
vt 0.30469 0.01563
vt 0.33594 0.60938
vt 0.62500 0.60938
vt 0.33594 0.01563
vt 0.62500 0.01563
vt 0.70313 0.06250
vt 0.97656 0.06250
vt 0.70313 0.09375
vt 0.97656 0.09375
vt 0.70313 0.21875
vt 0.97656 0.21875
vt 0.70313 0.25000
vt 0.97656 0.25000
vt 0.70313 0.42188
vt 0.96094 0.42188
vt 0.70313 0.45313
vt 0.96094 0.45313
vt 0.70313 0.51563
vt 0.96094 0.51563
vt 0.70313 0.54688
vt 0.96094 0.54688
vt 0.70313 0.59375
vt 0.94531 0.59375
vt 0.01563 0.65625
vt 0.25781 0.65625
vt 0.28906 0.64063
vt 0.53125 0.64063
vt 0.56250 0.65625
vt 0.80469 0.65625
vt 0.03125 0.68750
vt 0.22656 0.68750
vt 0.28906 0.68750
vt 0.48438 0.68750
vt 0.54688 0.70313
vt 0.74219 0.70313
vt 0.03125 0.75000
vt 0.22656 0.75000

g Window_Small
usemtl Window_Small_Material
f 54/265/1 45/1/1 46/2/1
f 46/2/1 55/266/1 54/265/1
f 55/266/1 46/2/1 49/267/1
f 49/267/1 48/4/1 55/266/1
f 48/4/1 49/267/1 52/268/1
f 52/268/1 47/3/1 48/4/1
f 10/269/2 1/5/2 2/6/2
f 2/6/2 11/270/2 10/269/2
f 11/270/2 2/6/2 5/271/2
f 5/271/2 4/8/2 11/270/2
f 4/8/2 5/271/2 8/272/2
f 8/272/2 3/7/2 4/8/2
f 47/10/4 1/12/4 48/9/4
f 47/10/4 2/11/4 1/12/4
f 3/14/3 45/16/3 4/13/3
f 3/14/3 46/15/3 45/16/3
f 62/273/1 53/17/1 54/18/1
f 54/18/1 63/274/1 62/273/1
f 63/274/1 54/18/1 55/19/1
f 55/19/1 56/20/1 63/274/1
f 8/24/2 5/21/2 6/22/2
f 6/22/2 7/23/2 8/24/2
f 7/23/2 6/22/2 13/275/2
f 13/275/2 16/276/2 7/23/2
f 18/277/2 9/25/2 10/26/2
f 10/26/2 19/278/2 18/277/2
f 19/278/2 10/26/2 11/27/2
f 11/27/2 12/28/2 19/278/2
f 52/32/1 49/29/1 50/30/1
f 50/30/1 51/31/1 52/32/1
f 51/31/1 50/30/1 57/279/1
f 57/279/1 60/280/1 51/31/1
f 55/34/4 9/36/4 56/33/4
f 55/34/4 10/35/4 9/36/4
f 51/38/4 5/40/4 52/37/4
f 51/38/4 6/39/4 5/40/4
f 11/42/3 53/44/3 12/41/3
f 11/42/3 54/43/3 53/44/3
f 7/46/3 49/48/3 8/45/3
f 7/46/3 50/47/3 49/48/3
f 70/281/1 61/49/1 62/50/1
f 62/50/1 71/282/1 70/281/1
f 71/282/1 62/50/1 63/51/1
f 63/51/1 64/52/1 71/282/1
f 60/56/1 57/53/1 58/54/1
f 58/54/1 59/55/1 60/56/1
f 59/55/1 58/54/1 65/283/1
f 65/283/1 68/284/1 59/55/1
f 26/285/2 17/57/2 18/58/2
f 18/58/2 27/286/2 26/285/2
f 27/286/2 18/58/2 19/59/2
f 19/59/2 20/60/2 27/286/2
f 16/64/2 13/61/2 14/62/2
f 14/62/2 15/63/2 16/64/2
f 15/63/2 14/62/2 21/287/2
f 21/287/2 24/288/2 15/63/2
f 68/68/1 65/65/1 66/66/1
f 66/66/1 67/67/1 68/68/1
f 67/67/1 66/66/1 73/289/1
f 73/289/1 76/290/1 67/67/1
f 78/291/1 69/69/1 70/70/1
f 70/70/1 79/292/1 78/291/1
f 79/292/1 70/70/1 71/71/1
f 71/71/1 72/72/1 79/292/1
f 24/76/2 21/73/2 22/74/2
f 22/74/2 23/75/2 24/76/2
f 23/75/2 22/74/2 29/293/2
f 29/293/2 32/294/2 23/75/2
f 34/295/2 25/77/2 26/78/2
f 26/78/2 35/296/2 34/295/2
f 35/296/2 26/78/2 27/79/2
f 27/79/2 28/80/2 35/296/2
f 76/84/1 73/81/1 74/82/1
f 74/82/1 75/83/1 76/84/1
f 75/83/1 74/82/1 81/297/1
f 81/297/1 84/298/1 75/83/1
f 32/88/2 29/85/2 30/86/2
f 30/86/2 31/87/2 32/88/2
f 31/87/2 30/86/2 37/299/2
f 37/299/2 40/300/2 31/87/2
f 86/301/1 77/89/1 78/90/1
f 78/90/1 87/302/1 86/301/1
f 87/302/1 78/90/1 79/91/1
f 79/91/1 80/92/1 87/302/1
f 42/303/2 33/93/2 34/94/2
f 34/94/2 43/304/2 42/303/2
f 43/304/2 34/94/2 35/95/2
f 35/95/2 36/96/2 43/304/2
f 82/97/6 39/98/6 83/100/6
f 39/98/6 38/99/6 83/100/6
f 42/102/2 44/104/2 41/101/2
f 42/102/2 43/103/2 44/104/2
f 38/106/2 40/108/2 37/105/2
f 38/106/2 39/107/2 40/108/2
f 86/110/1 88/112/1 85/109/1
f 86/110/1 87/111/1 88/112/1
f 82/114/1 84/116/1 81/113/1
f 82/114/1 83/115/1 84/116/1
f 44/117/5 85/118/5 41/120/5
f 85/118/5 88/119/5 41/120/5
f 36/121/5 77/122/5 43/124/5
f 77/122/5 86/123/5 43/124/5
f 42/125/5 87/126/5 33/128/5
f 87/126/5 80/127/5 33/128/5
f 84/129/6 37/130/6 75/132/6
f 37/130/6 30/131/6 75/132/6
f 74/133/6 31/134/6 81/136/6
f 31/134/6 40/135/6 81/136/6
f 23/138/3 65/140/3 24/137/3
f 23/138/3 66/139/3 65/140/3
f 19/142/3 61/144/3 20/141/3
f 19/142/3 62/143/3 61/144/3
f 15/146/3 57/148/3 16/145/3
f 15/146/3 58/147/3 57/148/3
f 27/150/3 69/152/3 28/149/3
f 27/150/3 70/151/3 69/152/3
f 18/153/5 63/154/5 9/156/5
f 63/154/5 56/155/5 9/156/5
f 10/157/5 55/158/5 1/160/5
f 55/158/5 48/159/5 1/160/5
f 46/161/6 3/162/6 49/164/6
f 3/162/6 8/163/6 49/164/6
f 26/165/5 71/166/5 17/168/5
f 71/166/5 64/167/5 17/168/5
f 20/169/5 61/170/5 27/172/5
f 61/170/5 70/171/5 27/172/5
f 28/173/5 69/174/5 35/176/5
f 69/174/5 78/175/5 35/176/5
f 34/177/5 79/178/5 25/180/5
f 79/178/5 72/179/5 25/180/5
f 68/181/6 21/182/6 59/184/6
f 21/182/6 14/183/6 59/184/6
f 60/185/6 13/186/6 51/188/6
f 13/186/6 6/187/6 51/188/6
f 52/189/6 5/190/6 47/192/6
f 5/190/6 2/191/6 47/192/6
f 76/193/6 29/194/6 67/196/6
f 29/194/6 22/195/6 67/196/6
f 50/197/6 7/198/6 57/200/6
f 7/198/6 16/199/6 57/200/6
f 58/201/6 15/202/6 65/204/6
f 15/202/6 24/203/6 65/204/6
f 66/205/6 23/206/6 73/208/6
f 23/206/6 32/207/6 73/208/6
f 83/210/4 37/212/4 84/209/4
f 83/210/4 38/211/4 37/212/4
f 87/214/4 41/216/4 88/213/4
f 87/214/4 42/215/4 41/216/4
f 75/218/4 29/220/4 76/217/4
f 75/218/4 30/219/4 29/220/4
f 43/222/3 85/224/3 44/221/3
f 43/222/3 86/223/3 85/224/3
f 31/226/3 73/228/3 32/225/3
f 31/226/3 74/227/3 73/228/3
f 35/230/3 77/232/3 36/229/3
f 35/230/3 78/231/3 77/232/3
f 39/234/3 81/236/3 40/233/3
f 39/234/3 82/235/3 81/236/3
f 63/238/4 17/240/4 64/237/4
f 63/238/4 18/239/4 17/240/4
f 4/241/5 45/242/5 11/244/5
f 45/242/5 54/243/5 11/244/5
f 12/245/5 53/246/5 19/248/5
f 53/246/5 62/247/5 19/248/5
f 59/250/4 13/252/4 60/249/4
f 59/250/4 14/251/4 13/252/4
f 79/254/4 33/256/4 80/253/4
f 79/254/4 34/255/4 33/256/4
f 67/258/4 21/260/4 68/257/4
f 67/258/4 22/259/4 21/260/4
f 71/262/4 25/264/4 72/261/4
f 71/262/4 26/263/4 25/264/4
