# This file was created with Minddesk Qubicle 3.0
# Get Qubicle at www.getqubicle.com

mtllib Window_Medium.mtl

vn 0.0 0.0 1.0
vn 0.0 0.0 -1.0
vn -1.0 0.0 0.0
vn 1.0 0.0 0.0
vn 0.0 1.0 0.0
vn 0.0 -1.0 0.0

v -12.00000 83.00000 -80.00000
v -12.00000 45.00000 -80.00000
v -100.00000 45.00000 -80.00000
v -100.00000 83.00000 -80.00000
v -13.00000 45.00000 -80.00000
v -13.00000 42.00000 -80.00000
v -99.00000 42.00000 -80.00000
v -99.00000 45.00000 -80.00000
v -13.00000 86.00000 -80.00000
v -13.00000 83.00000 -80.00000
v -99.00000 83.00000 -80.00000
v -99.00000 86.00000 -80.00000
v -14.00000 42.00000 -80.00000
v -14.00000 41.00000 -80.00000
v -98.00000 41.00000 -80.00000
v -98.00000 42.00000 -80.00000
v -14.00000 87.00000 -80.00000
v -14.00000 86.00000 -80.00000
v -98.00000 86.00000 -80.00000
v -98.00000 87.00000 -80.00000
v -15.00000 41.00000 -80.00000
v -15.00000 40.00000 -80.00000
v -97.00000 40.00000 -80.00000
v -97.00000 41.00000 -80.00000
v -15.00000 88.00000 -80.00000
v -15.00000 87.00000 -80.00000
v -97.00000 87.00000 -80.00000
v -97.00000 88.00000 -80.00000
v -16.00000 40.00000 -80.00000
v -16.00000 39.00000 -80.00000
v -96.00000 39.00000 -80.00000
v -96.00000 40.00000 -80.00000
v -16.00000 89.00000 -80.00000
v -16.00000 88.00000 -80.00000
v -96.00000 88.00000 -80.00000
v -96.00000 89.00000 -80.00000
v -19.00000 39.00000 -80.00000
v -19.00000 38.00000 -80.00000
v -93.00000 38.00000 -80.00000
v -93.00000 39.00000 -80.00000
v -19.00000 90.00000 -80.00000
v -19.00000 89.00000 -80.00000
v -93.00000 89.00000 -80.00000
v -93.00000 90.00000 -80.00000
v -100.00000 83.00000 -79.00000
v -100.00000 45.00000 -79.00000
v -12.00000 45.00000 -79.00000
v -12.00000 83.00000 -79.00000
v -99.00000 45.00000 -79.00000
v -99.00000 42.00000 -79.00000
v -13.00000 42.00000 -79.00000
v -13.00000 45.00000 -79.00000
v -99.00000 86.00000 -79.00000
v -99.00000 83.00000 -79.00000
v -13.00000 83.00000 -79.00000
v -13.00000 86.00000 -79.00000
v -98.00000 42.00000 -79.00000
v -98.00000 41.00000 -79.00000
v -14.00000 41.00000 -79.00000
v -14.00000 42.00000 -79.00000
v -98.00000 87.00000 -79.00000
v -98.00000 86.00000 -79.00000
v -14.00000 86.00000 -79.00000
v -14.00000 87.00000 -79.00000
v -97.00000 41.00000 -79.00000
v -97.00000 40.00000 -79.00000
v -15.00000 40.00000 -79.00000
v -15.00000 41.00000 -79.00000
v -97.00000 88.00000 -79.00000
v -97.00000 87.00000 -79.00000
v -15.00000 87.00000 -79.00000
v -15.00000 88.00000 -79.00000
v -96.00000 40.00000 -79.00000
v -96.00000 39.00000 -79.00000
v -16.00000 39.00000 -79.00000
v -16.00000 40.00000 -79.00000
v -96.00000 89.00000 -79.00000
v -96.00000 88.00000 -79.00000
v -16.00000 88.00000 -79.00000
v -16.00000 89.00000 -79.00000
v -93.00000 39.00000 -79.00000
v -93.00000 38.00000 -79.00000
v -19.00000 38.00000 -79.00000
v -19.00000 39.00000 -79.00000
v -93.00000 90.00000 -79.00000
v -93.00000 89.00000 -79.00000
v -19.00000 89.00000 -79.00000
v -19.00000 90.00000 -79.00000

vt 0.00391 0.30469
vt 0.00391 0.00781
vt 0.34766 0.00781
vt 0.34766 0.30469
vt 0.35547 0.30469
vt 0.35547 0.00781
vt 0.69922 0.00781
vt 0.69922 0.30469
vt 0.70703 0.30469
vt 0.70703 0.00781
vt 0.71094 0.00781
vt 0.71094 0.30469
vt 0.71875 0.30469
vt 0.71875 0.00781
vt 0.72266 0.00781
vt 0.72266 0.30469
vt 0.00391 0.34375
vt 0.00391 0.32031
vt 0.33984 0.32031
vt 0.33984 0.34375
vt 0.34766 0.34375
vt 0.34766 0.32031
vt 0.68359 0.32031
vt 0.68359 0.34375
vt 0.00391 0.38281
vt 0.00391 0.35938
vt 0.33984 0.35938
vt 0.33984 0.38281
vt 0.34766 0.38281
vt 0.34766 0.35938
vt 0.68359 0.35938
vt 0.68359 0.38281
vt 0.73047 0.03125
vt 0.73047 0.00781
vt 0.73438 0.00781
vt 0.73438 0.03125
vt 0.74219 0.03125
vt 0.74219 0.00781
vt 0.74609 0.00781
vt 0.74609 0.03125
vt 0.75391 0.03125
vt 0.75391 0.00781
vt 0.75781 0.00781
vt 0.75781 0.03125
vt 0.76563 0.03125
vt 0.76563 0.00781
vt 0.76953 0.00781
vt 0.76953 0.03125
vt 0.00391 0.40625
vt 0.00391 0.39844
vt 0.33203 0.39844
vt 0.33203 0.40625
vt 0.33984 0.40625
vt 0.33984 0.39844
vt 0.66797 0.39844
vt 0.66797 0.40625
vt 0.00391 0.42969
vt 0.00391 0.42188
vt 0.33203 0.42188
vt 0.33203 0.42969
vt 0.33984 0.42969
vt 0.33984 0.42188
vt 0.66797 0.42188
vt 0.66797 0.42969
vt 0.67578 0.40625
vt 0.67578 0.39844
vt 0.99609 0.39844
vt 0.99609 0.40625
vt 0.67578 0.42969
vt 0.67578 0.42188
vt 0.99609 0.42188
vt 0.99609 0.42969
vt 0.00391 0.45313
vt 0.00391 0.44531
vt 0.32422 0.44531
vt 0.32422 0.45313
vt 0.33203 0.45313
vt 0.33203 0.44531
vt 0.65234 0.44531
vt 0.65234 0.45313
vt 0.66016 0.45313
vt 0.66016 0.44531
vt 0.97266 0.44531
vt 0.97266 0.45313
vt 0.00391 0.47656
vt 0.00391 0.46875
vt 0.31641 0.46875
vt 0.31641 0.47656
vt 0.32422 0.47656
vt 0.32422 0.46875
vt 0.63672 0.46875
vt 0.63672 0.47656
vt 0.64453 0.47656
vt 0.64453 0.46875
vt 0.95703 0.46875
vt 0.95703 0.47656
vt 0.69141 0.32813
vt 0.69141 0.32031
vt 0.98047 0.32031
vt 0.98047 0.32813
vt 0.69141 0.36719
vt 0.69141 0.35938
vt 0.98047 0.35938
vt 0.98047 0.36719
vt 0.00391 0.50000
vt 0.00391 0.49219
vt 0.29297 0.49219
vt 0.29297 0.50000
vt 0.30078 0.50000
vt 0.30078 0.49219
vt 0.58984 0.49219
vt 0.58984 0.50000
vt 0.59766 0.50000
vt 0.59766 0.49219
vt 0.88672 0.49219
vt 0.88672 0.50000
vt 0.00391 0.52344
vt 0.00391 0.51563
vt 0.29297 0.51563
vt 0.29297 0.52344
vt 0.77734 0.01563
vt 0.77734 0.00781
vt 0.78906 0.00781
vt 0.78906 0.01563
vt 0.79688 0.01563
vt 0.79688 0.00781
vt 0.80859 0.00781
vt 0.80859 0.01563
vt 0.81641 0.01563
vt 0.81641 0.00781
vt 0.82813 0.00781
vt 0.82813 0.01563
vt 0.83594 0.01563
vt 0.83594 0.00781
vt 0.84766 0.00781
vt 0.84766 0.01563
vt 0.85547 0.01563
vt 0.85547 0.00781
vt 0.85938 0.00781
vt 0.85938 0.01563
vt 0.86719 0.01563
vt 0.86719 0.00781
vt 0.87109 0.00781
vt 0.87109 0.01563
vt 0.87891 0.01563
vt 0.87891 0.00781
vt 0.88281 0.00781
vt 0.88281 0.01563
vt 0.89063 0.01563
vt 0.89063 0.00781
vt 0.89453 0.00781
vt 0.89453 0.01563
vt 0.90234 0.01563
vt 0.90234 0.00781
vt 0.90625 0.00781
vt 0.90625 0.01563
vt 0.91406 0.01563
vt 0.91406 0.00781
vt 0.91797 0.00781
vt 0.91797 0.01563
vt 0.92578 0.01563
vt 0.92578 0.00781
vt 0.92969 0.00781
vt 0.92969 0.01563
vt 0.93750 0.01563
vt 0.93750 0.00781
vt 0.94141 0.00781
vt 0.94141 0.01563
vt 0.94922 0.01563
vt 0.94922 0.00781
vt 0.95313 0.00781
vt 0.95313 0.01563
vt 0.96094 0.01563
vt 0.96094 0.00781
vt 0.96484 0.00781
vt 0.96484 0.01563
vt 0.97266 0.01563
vt 0.97266 0.00781
vt 0.97656 0.00781
vt 0.97656 0.01563
vt 0.98438 0.01563
vt 0.98438 0.00781
vt 0.98828 0.00781
vt 0.98828 0.01563
vt 0.73047 0.05469
vt 0.73047 0.04688
vt 0.73438 0.04688
vt 0.73438 0.05469
vt 0.74219 0.05469
vt 0.74219 0.04688
vt 0.74609 0.04688
vt 0.74609 0.05469
vt 0.75391 0.05469
vt 0.75391 0.04688
vt 0.75781 0.04688
vt 0.75781 0.05469
vt 0.76563 0.05469
vt 0.76563 0.04688
vt 0.76953 0.04688
vt 0.76953 0.05469
vt 0.77734 0.05469
vt 0.77734 0.04688
vt 0.78125 0.04688
vt 0.78125 0.05469
vt 0.78906 0.05469
vt 0.78906 0.04688
vt 0.79297 0.04688
vt 0.79297 0.05469
vt 0.80078 0.05469
vt 0.80078 0.04688
vt 0.80469 0.04688
vt 0.80469 0.05469
vt 0.81250 0.05469
vt 0.81250 0.04688
vt 0.81641 0.04688
vt 0.81641 0.05469
vt 0.82422 0.05469
vt 0.82422 0.04688
vt 0.82813 0.04688
vt 0.82813 0.05469
vt 0.83594 0.05469
vt 0.83594 0.04688
vt 0.83984 0.04688
vt 0.83984 0.05469
vt 0.84766 0.05469
vt 0.84766 0.04688
vt 0.85156 0.04688
vt 0.85156 0.05469
vt 0.85938 0.05469
vt 0.85938 0.04688
vt 0.86328 0.04688
vt 0.86328 0.05469
vt 0.87109 0.05469
vt 0.87109 0.04688
vt 0.87500 0.04688
vt 0.87500 0.05469
vt 0.88281 0.05469
vt 0.88281 0.04688
vt 0.88672 0.04688
vt 0.88672 0.05469
vt 0.89453 0.05469
vt 0.89453 0.04688
vt 0.89844 0.04688
vt 0.89844 0.05469
vt 0.90625 0.05469
vt 0.90625 0.04688
vt 0.91016 0.04688
vt 0.91016 0.05469
vt 0.91797 0.05469
vt 0.91797 0.04688
vt 0.92188 0.04688
vt 0.92188 0.05469
vt 0.92969 0.05469
vt 0.92969 0.04688
vt 0.93359 0.04688
vt 0.93359 0.05469
vt 0.94141 0.05469
vt 0.94141 0.04688
vt 0.94531 0.04688
vt 0.94531 0.05469
vt 0.95313 0.05469
vt 0.95313 0.04688
vt 0.95703 0.04688
vt 0.95703 0.05469
vt 0.00781 0.30469
vt 0.34375 0.30469
vt 0.00781 0.00781
vt 0.34375 0.00781
vt 0.35938 0.30469
vt 0.69531 0.30469
vt 0.35938 0.00781
vt 0.69531 0.00781
vt 0.00781 0.34375
vt 0.33594 0.34375
vt 0.35156 0.32031
vt 0.67969 0.32031
vt 0.00781 0.38281
vt 0.33594 0.38281
vt 0.35156 0.35938
vt 0.67969 0.35938
vt 0.00781 0.40625
vt 0.32813 0.40625
vt 0.34375 0.39844
vt 0.66406 0.39844
vt 0.00781 0.42969
vt 0.32813 0.42969
vt 0.34375 0.42188
vt 0.66406 0.42188
vt 0.99219 0.39844
vt 0.67969 0.42969
vt 0.32031 0.44531
vt 0.33594 0.45313
vt 0.67188 0.44531
vt 0.96094 0.44531
vt 0.01563 0.46875
vt 0.30469 0.46875
vt 0.33594 0.47656
vt 0.62500 0.47656
vt 0.65625 0.47656
vt 0.94531 0.47656

g Window_Medium
usemtl Window_Medium_Material
f 54/265/1 45/1/1 46/2/1
f 46/2/1 55/266/1 54/265/1
f 55/266/1 46/2/1 49/267/1
f 49/267/1 48/4/1 55/266/1
f 48/4/1 49/267/1 52/268/1
f 52/268/1 47/3/1 48/4/1
f 10/269/2 1/5/2 2/6/2
f 2/6/2 11/270/2 10/269/2
f 11/270/2 2/6/2 5/271/2
f 5/271/2 4/8/2 11/270/2
f 4/8/2 5/271/2 8/272/2
f 8/272/2 3/7/2 4/8/2
f 47/10/4 1/12/4 48/9/4
f 47/10/4 2/11/4 1/12/4
f 3/14/3 45/16/3 4/13/3
f 3/14/3 46/15/3 45/16/3
f 62/273/1 53/17/1 54/18/1
f 54/18/1 63/274/1 62/273/1
f 63/274/1 54/18/1 55/19/1
f 55/19/1 56/20/1 63/274/1
f 8/24/2 5/21/2 6/22/2
f 6/22/2 7/23/2 8/24/2
f 7/23/2 6/22/2 13/275/2
f 13/275/2 16/276/2 7/23/2
f 18/277/2 9/25/2 10/26/2
f 10/26/2 19/278/2 18/277/2
f 19/278/2 10/26/2 11/27/2
f 11/27/2 12/28/2 19/278/2
f 52/32/1 49/29/1 50/30/1
f 50/30/1 51/31/1 52/32/1
f 51/31/1 50/30/1 57/279/1
f 57/279/1 60/280/1 51/31/1
f 55/34/4 9/36/4 56/33/4
f 55/34/4 10/35/4 9/36/4
f 51/38/4 5/40/4 52/37/4
f 51/38/4 6/39/4 5/40/4
f 11/42/3 53/44/3 12/41/3
f 11/42/3 54/43/3 53/44/3
f 7/46/3 49/48/3 8/45/3
f 7/46/3 50/47/3 49/48/3
f 70/281/1 61/49/1 62/50/1
f 62/50/1 71/282/1 70/281/1
f 71/282/1 62/50/1 63/51/1
f 63/51/1 64/52/1 71/282/1
f 60/56/1 57/53/1 58/54/1
f 58/54/1 59/55/1 60/56/1
f 59/55/1 58/54/1 65/283/1
f 65/283/1 68/284/1 59/55/1
f 26/285/2 17/57/2 18/58/2
f 18/58/2 27/286/2 26/285/2
f 27/286/2 18/58/2 19/59/2
f 19/59/2 20/60/2 27/286/2
f 16/64/2 13/61/2 14/62/2
f 14/62/2 15/63/2 16/64/2
f 15/63/2 14/62/2 21/287/2
f 21/287/2 24/288/2 15/63/2
f 68/68/1 65/65/1 66/66/1
f 66/66/1 67/67/1 68/68/1
f 67/67/1 66/66/1 76/289/1
f 78/290/1 69/69/1 70/70/1
f 70/70/1 72/72/1 78/290/1
f 72/72/1 70/70/1 71/71/1
f 24/76/2 21/73/2 22/74/2
f 22/74/2 23/75/2 24/76/2
f 23/75/2 22/74/2 32/291/2
f 34/292/2 25/77/2 26/78/2
f 26/78/2 28/80/2 34/292/2
f 28/80/2 26/78/2 27/79/2
f 76/84/1 73/81/1 74/82/1
f 74/82/1 75/83/1 76/84/1
f 75/83/1 74/82/1 81/293/1
f 81/293/1 84/294/1 75/83/1
f 32/88/2 29/85/2 30/86/2
f 30/86/2 31/87/2 32/88/2
f 31/87/2 30/86/2 37/295/2
f 37/295/2 40/296/2 31/87/2
f 86/297/1 77/89/1 78/90/1
f 78/90/1 87/298/1 86/297/1
f 87/298/1 78/90/1 79/91/1
f 79/91/1 80/92/1 87/298/1
f 42/299/2 33/93/2 34/94/2
f 34/94/2 43/300/2 42/299/2
f 43/300/2 34/94/2 35/95/2
f 35/95/2 36/96/2 43/300/2
f 82/97/6 39/98/6 83/100/6
f 39/98/6 38/99/6 83/100/6
f 42/102/2 44/104/2 41/101/2
f 42/102/2 43/103/2 44/104/2
f 38/106/2 40/108/2 37/105/2
f 38/106/2 39/107/2 40/108/2
f 86/110/1 88/112/1 85/109/1
f 86/110/1 87/111/1 88/112/1
f 82/114/1 84/116/1 81/113/1
f 82/114/1 83/115/1 84/116/1
f 44/117/5 85/118/5 41/120/5
f 85/118/5 88/119/5 41/120/5
f 36/121/5 77/122/5 43/124/5
f 77/122/5 86/123/5 43/124/5
f 42/125/5 87/126/5 33/128/5
f 87/126/5 80/127/5 33/128/5
f 84/129/6 37/130/6 75/132/6
f 37/130/6 30/131/6 75/132/6
f 74/133/6 31/134/6 81/136/6
f 31/134/6 40/135/6 81/136/6
f 23/138/3 65/140/3 24/137/3
f 23/138/3 66/139/3 65/140/3
f 19/142/3 61/144/3 20/141/3
f 19/142/3 62/143/3 61/144/3
f 15/146/3 57/148/3 16/145/3
f 15/146/3 58/147/3 57/148/3
f 27/150/3 69/152/3 28/149/3
f 27/150/3 70/151/3 69/152/3
f 18/153/5 63/154/5 9/156/5
f 63/154/5 56/155/5 9/156/5
f 10/157/5 55/158/5 1/160/5
f 55/158/5 48/159/5 1/160/5
f 46/161/6 3/162/6 49/164/6
f 3/162/6 8/163/6 49/164/6
f 26/165/5 71/166/5 17/168/5
f 71/166/5 64/167/5 17/168/5
f 20/169/5 61/170/5 27/172/5
f 61/170/5 70/171/5 27/172/5
f 28/173/5 69/174/5 35/176/5
f 69/174/5 78/175/5 35/176/5
f 34/177/5 79/178/5 25/180/5
f 79/178/5 72/179/5 25/180/5
f 68/181/6 21/182/6 59/184/6
f 21/182/6 14/183/6 59/184/6
f 60/185/6 13/186/6 51/188/6
f 13/186/6 6/187/6 51/188/6
f 52/189/6 5/190/6 47/192/6
f 5/190/6 2/191/6 47/192/6
f 76/193/6 29/194/6 67/196/6
f 29/194/6 22/195/6 67/196/6
f 50/197/6 7/198/6 57/200/6
f 7/198/6 16/199/6 57/200/6
f 58/201/6 15/202/6 65/204/6
f 15/202/6 24/203/6 65/204/6
f 66/205/6 23/206/6 73/208/6
f 23/206/6 32/207/6 73/208/6
f 83/210/4 37/212/4 84/209/4
f 83/210/4 38/211/4 37/212/4
f 87/214/4 41/216/4 88/213/4
f 87/214/4 42/215/4 41/216/4
f 75/218/4 29/220/4 76/217/4
f 75/218/4 30/219/4 29/220/4
f 43/222/3 85/224/3 44/221/3
f 43/222/3 86/223/3 85/224/3
f 31/226/3 73/228/3 32/225/3
f 31/226/3 74/227/3 73/228/3
f 35/230/3 77/232/3 36/229/3
f 35/230/3 78/231/3 77/232/3
f 39/234/3 81/236/3 40/233/3
f 39/234/3 82/235/3 81/236/3
f 63/238/4 17/240/4 64/237/4
f 63/238/4 18/239/4 17/240/4
f 4/241/5 45/242/5 11/244/5
f 45/242/5 54/243/5 11/244/5
f 12/245/5 53/246/5 19/248/5
f 53/246/5 62/247/5 19/248/5
f 59/250/4 13/252/4 60/249/4
f 59/250/4 14/251/4 13/252/4
f 79/254/4 33/256/4 80/253/4
f 79/254/4 34/255/4 33/256/4
f 67/258/4 21/260/4 68/257/4
f 67/258/4 22/259/4 21/260/4
f 71/262/4 25/264/4 72/261/4
f 71/262/4 26/263/4 25/264/4
